<svg width="22" height="22" viewBox="0 0 22 22" version="1.1" xmlns="http://www.w3.org/2000/svg" xmlns:xlink="http://www.w3.org/1999/xlink">
<title>svg</title>
<desc>Created using Figma</desc>
<g id="Canvas" transform="translate(-656 -1082)">
<g id="svg">
<g id="Shape">
<use xlink:href="#path0_fill" transform="translate(656 1082)" fill="#A0B0B9"/>
</g>
</g>
</g>
<defs>
<path id="path0_fill" fill-rule="evenodd" d="M 16.21 8.08215L 11.83 0.486328C 11.64 0.162109 11.32 0 11 0C 10.68 0 10.36 0.162109 10.17 0.497925L 5.78998 8.08215L 1 8.08215C 0.450012 8.08215 0 8.60315 0 9.23999C 0 9.34424 0.0100098 9.44836 0.039978 9.55261L 2.58002 20.2864C 2.81 21.2589 3.58002 21.9768 4.5 21.9768L 17.5 21.9768C 18.42 21.9768 19.19 21.2589 19.43 20.2864L 21.97 9.55261L 22 9.23999C 22 8.60315 21.55 8.08215 21 8.08215L 16.21 8.08215ZM 8 8.08215L 11 2.98743L 14 8.08215L 8 8.08215ZM 9 15.0294C 9 16.3031 9.90002 17.3452 11 17.3452C 12.1 17.3452 13 16.3031 13 15.0294C 13 13.7557 12.1 12.7136 11 12.7136C 9.90002 12.7136 9 13.7557 9 15.0294Z"/>
</defs>
</svg>
