<svg width="17" height="23" viewBox="0 0 17 23" version="1.1" xmlns="http://www.w3.org/2000/svg" xmlns:xlink="http://www.w3.org/1999/xlink">
<title>Group</title>
<desc>Created using Figma</desc>
<g id="Canvas" transform="translate(-5799 -865)">
<g id="Group">
<g id="backgroundImage">
<g id="Group">
<g id="Shape">
<use xlink:href="#path0_fill" transform="translate(5799 865)" fill="#9AB0B9"/>
</g>
<g id="Shape">
<use xlink:href="#path1_fill" transform="translate(5804 875)" fill="#9AB0B9"/>
</g>
</g>
</g>
</g>
</g>
<defs>
<path id="path0_fill" fill-rule="evenodd" d="M 5.98975 0C 5.42383 0 4.98486 0.447998 4.98486 1C 4.98486 1.26611 5.09082 1.52118 5.2793 1.70886C 5.37793 1.80664 5.49414 1.8819 5.62061 1.9314C 5.7373 1.97693 5.8623 2.00067 5.98975 2L 5.98682 5L 1.96484 5C 0.862793 5 0 5.89301 0 6.995L 0 19.005C 0 20.107 0.862793 21 1.96387 21L 3.98389 21L 3.98389 22.001C 3.9834 22.1822 4.03223 22.3584 4.12354 22.5117C 4.15137 22.5581 4.18262 22.6025 4.21777 22.6442L 4.24121 22.6709L 4.27686 22.7087C 4.37061 22.8023 4.48096 22.8753 4.60107 22.9248C 4.72168 22.9745 4.85205 23.0005 4.98486 23C 5.11426 23.0005 5.24121 22.9758 5.35938 22.9287C 5.4834 22.8792 5.59717 22.8048 5.69385 22.7087C 5.88184 22.5212 5.9873 22.2665 5.98682 22.001L 5.98682 21L 10.9951 21L 10.9951 22.001C 10.9946 22.2665 11.0996 22.5212 11.2876 22.7087C 11.4756 22.8962 11.7305 23.001 11.9961 23C 12.2617 23.001 12.5166 22.8962 12.7046 22.7087C 12.8926 22.5212 12.998 22.2665 12.998 22.001L 12.998 21L 15.0869 21C 16.188 21 17 20.107 17 19.005L 17 6.995C 17 5.89301 16.1899 5 15.0869 5L 10.9951 5L 10.9917 2C 11.5439 2 11.9917 1.55231 11.9917 1C 11.9917 0.447693 11.5439 0 10.9917 0L 5.98975 0ZM 9.99316 2L 6.98779 2L 6.98779 5L 9.99316 5L 9.99316 2ZM 11.9951 20L 4.98682 20L 4.98682 21L 4.98389 22.001L 4.98389 20L 1.96484 20C 1.4248 20 1 19.566 1 19.005L 1 6.995C 1 6.435 1.42578 6 1.96484 6L 15.0869 6C 15.6079 6 16 6.41498 16 6.995L 16 19.005C 16 19.583 15.6069 20 15.0869 20L 11.9951 20Z"/>
<path id="path1_fill" d="M 3.43965 4.62019L 1.60165 6.40219C 1.23052 6.75712 0.64579 6.75712 0.274654 6.40219C 0.0992183 6.2343 0 6.00202 0 5.75919C 0 5.51637 0.0992183 5.28408 0.274654 5.11619L 2.11265 3.33419L 0.274654 1.55219C 0.0992183 1.3843 8.88178e-16 1.15202 8.88178e-16 0.909193C 8.88178e-16 0.666367 0.0992183 0.434084 0.274654 0.266193C 0.64579 -0.0887311 1.23052 -0.0887311 1.60165 0.266193L 3.43965 2.04819L 5.27765 0.266193C 5.64879 -0.0887311 6.23352 -0.0887311 6.60465 0.266193C 6.78009 0.434084 6.87931 0.666367 6.87931 0.909193C 6.87931 1.15202 6.78009 1.3843 6.60465 1.55219L 4.76665 3.33419L 6.60465 5.11619C 6.78009 5.28408 6.87931 5.51637 6.87931 5.75919C 6.87931 6.00202 6.78009 6.2343 6.60465 6.40219C 6.23352 6.75712 5.64879 6.75712 5.27765 6.40219L 3.43965 4.62019Z"/>
</defs>
</svg>
