<svg width="16" height="8" viewBox="0 0 16 8" version="1.1" xmlns="http://www.w3.org/2000/svg" xmlns:xlink="http://www.w3.org/1999/xlink">
<title>plane-taking-off</title>
<desc>Created using Figma</desc>
<g id="Canvas" transform="translate(-4950 -1457)">
<g id="plane-taking-off">
<g id="Combined Shape">
<use xlink:href="#path0_fill" transform="translate(4950 1457)" fill="#A0B0B9"/>
</g>
</g>
</g>
<defs>
<path id="path0_fill" fill-rule="evenodd" d="M 14.8984 0C 15.5229 0 15.8002 0.266479 15.9277 0.499512C 16.2905 1.25793 15.2216 2.11987 14.1 2.67358L 11.7011 3.89099L 6.92522 6.31506L 3.64641 7.97815C 3.57464 8.01465 3.48723 8.00476 3.42571 7.95325L 0.0682887 5.13135C 0.0189723 5.08984 -0.00641833 5.0271 0.00139417 4.96399C 0.00871839 4.90088 0.0477809 4.84546 0.105886 4.81604L 0.370047 4.67761C 0.427664 4.64819 0.497 4.64856 0.555105 4.67883L 3.61663 5.14185C 3.61663 5.14185 4.62346 4.62683 6.00432 3.92969C 5.89251 3.82922 5.70403 3.65295 5.69817 3.65735L 4.15081 2.22864C 3.71966 1.83081 3.34563 1.48596 3.26262 1.41089C 3.34319 1.38708 3.51946 1.3114 3.68792 1.23914C 3.87005 1.16113 4.04241 1.08704 4.07415 1.08704C 4.1347 1.08704 8.58977 2.62891 8.58977 2.62891L 8.49602 2.68018C 10.5766 1.64478 12.7065 0.608398 13.4975 0.302124C 13.5278 0.289795 14.2421 0 14.8984 0Z"/>
</defs>
</svg>
