<svg width="16" height="10" viewBox="0 0 16 10" version="1.1" xmlns="http://www.w3.org/2000/svg" xmlns:xlink="http://www.w3.org/1999/xlink">
<title>plane-taking-off</title>
<desc>Created using Figma</desc>
<g id="Canvas" transform="translate(-5170 -1455)">
<g id="plane-taking-off">
<g id="Combined Shape">
<use xlink:href="#path0_fill" transform="matrix(0.707107 0.707107 -0.707107 0.707107 5174.17 1452.51)" fill="#A0B0B9"/>
</g>
</g>
</g>
<defs>
<path id="path0_fill" fill-rule="evenodd" d="M 4.07412 1.08699C 4.13489 1.08699 8.58953 2.62895 8.58953 2.62895L 8.48957 2.68367C 10.5723 1.64727 12.7062 0.608878 13.4978 0.302454C 13.528 0.289852 14.2423 0.000172633 14.8988 0C 15.5227 0.000345267 15.8003 0.266805 15.9281 0.499601C 16.2909 1.25807 15.2216 2.1202 14.1 2.67383L 11.7016 3.89107L 6.92543 6.31511L 3.64651 7.97834C 3.5747 8.01494 3.48734 8.00493 3.42614 7.9534L 0.0684227 5.13153C 0.0187042 5.0901 -0.00606869 5.02735 0.00126823 4.96425C 0.00903674 4.90089 0.0482245 4.84548 0.106057 4.8163L 0.3701 4.67776C 0.427846 4.6485 0.497244 4.64885 0.55499 4.67897L 3.61656 5.14206C 3.61656 5.14206 4.62344 4.62701 6.00468 3.92974C 5.97154 3.90005 5.93218 3.86345 5.89239 3.82711C 5.79761 3.74062 5.70275 3.65405 5.69835 3.65724C 5.69835 3.65724 3.48026 1.60765 3.26275 1.41085C 3.43003 1.3613 4.01336 1.08699 4.07412 1.08699Z"/>
</defs>
</svg>
