<svg width="12" height="12" viewBox="0 0 12 12" version="1.1" xmlns="http://www.w3.org/2000/svg" xmlns:xlink="http://www.w3.org/1999/xlink">
<title>Shape</title>
<desc>Created using Figma</desc>
<g id="Canvas" transform="translate(-6746 -202)">
<g id="Shape">
<use xlink:href="#path0_fill" transform="translate(6746 202.154)" fill="#2196F3"/>
</g>
</g>
<defs>
<path id="path0_fill" fill-rule="evenodd" d="M 6 0C 2.69189 0 0 2.623 0 5.84599C 0 9.069 2.69189 11.692 6 11.692C 9.30811 11.692 12 9.069 12 5.84599C 12 2.623 9.30811 0 6 0ZM 6 0.923004C 8.7959 0.923004 11.0527 3.12201 11.0527 5.84601C 11.0527 8.57001 8.7959 10.769 6 10.769C 3.20361 10.769 0.946777 8.57001 0.946777 5.84601C 0.946777 3.12201 3.20361 0.923004 6 0.923004ZM 5.52588 2.153C 5.53027 1.89529 5.74219 1.68965 6 1.69299C 6.12402 1.6904 6.24365 1.73817 6.33252 1.82481C 6.42139 1.91145 6.47217 2.02988 6.47412 2.15399L 6.47412 5.582L 9.24707 7.13899C 9.35498 7.1982 9.43408 7.29872 9.4668 7.4175C 9.49902 7.53629 9.48193 7.66315 9.41895 7.769C 9.28418 7.99005 8.99805 8.06438 8.77295 7.937L 5.7627 6.245C 5.62207 6.166 5.52588 6.01599 5.52588 5.84599L 5.52588 2.153Z"/>
</defs>
</svg>
