<svg width="11" height="11" viewBox="0 0 11 11" version="1.1" xmlns="http://www.w3.org/2000/svg" xmlns:xlink="http://www.w3.org/1999/xlink">
<title>segmentRouteIataDot</title>
<desc>Created using Figma</desc>
<g id="Canvas" transform="translate(-4952 -1477)">
<g id="segmentRouteIataDot">
<use xlink:href="#path0_fill" transform="translate(4952 1477)" fill="#FFFFFF"/>
<mask id="mask0_outline_ins">
<use xlink:href="#path0_fill" fill="white" transform="translate(4952 1477)"/>
</mask>
<g mask="url(#mask0_outline_ins)">
<use xlink:href="#path1_stroke_2x" transform="translate(4952 1477)" fill="#A0B0B9"/>
</g>
</g>
</g>
<defs>
<path id="path0_fill" fill-rule="evenodd" d="M 0 5.5C 0 2.46243 2.46243 0 5.5 0C 8.53757 0 11 2.46243 11 5.5C 11 8.53757 8.53757 11 5.5 11C 2.46243 11 0 8.53757 0 5.5Z"/>
<path id="path1_stroke_2x" d="M 5.5 10C 3.01472 10 1 7.98528 1 5.5L -1 5.5C -1 9.08985 1.91015 12 5.5 12L 5.5 10ZM 10 5.5C 10 7.98528 7.98528 10 5.5 10L 5.5 12C 9.08985 12 12 9.08985 12 5.5L 10 5.5ZM 5.5 1C 7.98528 1 10 3.01472 10 5.5L 12 5.5C 12 1.91015 9.08985 -1 5.5 -1L 5.5 1ZM 5.5 -1C 1.91015 -1 -1 1.91015 -1 5.5L 1 5.5C 1 3.01472 3.01472 1 5.5 1L 5.5 -1Z"/>
</defs>
</svg>
