<svg width="19" height="20" viewBox="0 0 19 20" version="1.1" xmlns="http://www.w3.org/2000/svg" xmlns:xlink="http://www.w3.org/1999/xlink">
<title>Combined Shape</title>
<desc>Created using Figma</desc>
<g id="Canvas" transform="translate(-4693 -525)">
<g id="Combined Shape">
<use xlink:href="#path0_fill" transform="translate(4693.02 525.5)" fill="#9AB0B9"/>
</g>
</g>
<defs>
<path id="path0_fill" fill-rule="evenodd" d="M 9.47998 0C 11.9409 0 13.9712 1.94678 14.3975 4.5L 17.0679 4.5C 18.168 4.5 18.978 5.39301 18.978 6.495L 18.978 17.505C 18.978 18.607 18.168 19.5 17.0679 19.5L 1.96289 19.5C 0.859863 19.5 0 18.607 0 17.505L 0 6.495C 0 5.39301 0.86377 4.5 1.96387 4.5L 4.5625 4.5C 4.98877 1.94678 7.01904 0 9.47998 0ZM 5.47998 5.5L 4.47998 5.5L 1.96289 5.5C 1.42578 5.5 1.00098 5.935 1.00098 6.495L 1.00098 17.505C 1.00098 18.065 1.42578 18.5 1.96289 18.5L 17.0669 18.5C 17.585 18.5 17.9771 18.084 17.9771 17.505L 17.9771 6.495C 17.9771 5.91498 17.5869 5.5 17.0669 5.5L 14.48 5.5L 13.48 5.5L 5.47998 5.5ZM 5.5791 4.5L 13.3809 4.5C 12.9756 2.48969 11.374 1 9.47998 1C 7.58594 1 5.98438 2.48969 5.5791 4.5Z"/>
</defs>
</svg>
