<svg width="17" height="23" viewBox="0 0 17 23" version="1.1" xmlns="http://www.w3.org/2000/svg" xmlns:xlink="http://www.w3.org/1999/xlink">
<title>Group</title>
<desc>Created using Figma</desc>
<g id="Canvas" transform="translate(-4716 -523)">
<g id="Group">
<g id="Shape">
<use xlink:href="#path0_fill" transform="translate(4716 523)" fill="#F34C3D"/>
</g>
<g id="Shape">
<use xlink:href="#path1_fill" transform="translate(4721 533)" fill="#FF4C3E"/>
</g>
</g>
</g>
<defs>
<path id="path0_fill" fill-rule="evenodd" d="M 5.98975 7.62771e-06C 5.4248 7.62771e-06 4.98486 0.448006 4.98486 1.00001C 4.98486 1.26612 5.09082 1.52119 5.2793 1.70887C 5.46826 1.89655 5.72363 2.00135 5.98975 2.00001L 5.98682 5.00001L 1.96484 5.00001C 0.862793 5.00001 0 5.89301 0 6.995L 0 19.005C 0 20.107 0.861816 21 1.96484 21L 3.98486 21L 3.98486 22C 3.98486 22.557 4.43213 23 4.98486 23C 5.54199 23 5.98682 22.553 5.98682 22L 5.98682 21L 10.9951 21L 10.9951 22C 10.9946 22.2658 11.1001 22.5207 11.2881 22.7084C 11.4761 22.8961 11.7314 23.001 11.9971 23C 12.5542 23 12.9971 22.553 12.9971 22L 12.9971 21L 15.0869 21C 16.188 21 17 20.107 17 19.005L 17 6.995C 17 5.89301 16.1899 5.00001 15.0869 5.00001L 10.9951 5.00001L 10.9917 2.00001C 11.5581 2.00001 11.9961 1.55201 11.9961 1.00001C 11.9961 0.819954 11.9473 0.644905 11.8579 0.492439C 11.8149 0.419746 11.7627 0.352119 11.7017 0.291512C 11.5132 0.103828 11.2578 -0.00102997 10.9917 7.62771e-06L 5.98975 7.62771e-06ZM 9.99316 2.00001L 6.98682 2.00001L 6.98682 5.00001L 9.99316 5.00001L 9.99316 2.00001ZM 11.9951 20L 4.98682 20L 4.98682 21L 4.98486 22L 4.98486 20L 1.96484 20C 1.4248 20 1 19.565 1 19.005L 1 6.995C 1 6.43501 1.4248 6.00001 1.96484 6.00001L 15.0869 6.00001C 15.6079 6.00001 16 6.41499 16 6.995L 16 19.005C 16 19.583 15.6079 20 15.0879 20L 11.9951 20Z"/>
<path id="path1_fill" d="M 3.44025 4.62019L 1.60225 6.40219C 1.23525 6.75719 0.64225 6.75719 0.27525 6.40219C -0.09175 6.04719 -0.09175 5.47219 0.27525 5.11619L 2.11325 3.33419L 0.27525 1.55219C 0.0995519 1.38445 0.000149014 1.15211 0.000149014 0.909193C 0.000149014 0.666276 0.0995519 0.43394 0.27525 0.266193C 0.646386 -0.0887311 1.23111 -0.0887311 1.60225 0.266193L 3.44025 2.04819L 5.27825 0.266193C 5.64939 -0.0887311 6.23411 -0.0887311 6.60525 0.266193C 6.78069 0.434084 6.8799 0.666367 6.8799 0.909193C 6.8799 1.15202 6.78069 1.3843 6.60525 1.55219L 4.76725 3.33419L 6.60525 5.11619C 6.78069 5.28408 6.8799 5.51637 6.8799 5.75919C 6.8799 6.00202 6.78069 6.2343 6.60525 6.40219C 6.23411 6.75712 5.64939 6.75712 5.27825 6.40219L 3.44025 4.62019Z"/>
</defs>
</svg>
