<svg width="22" height="22" viewBox="0 0 22 22" version="1.1" xmlns="http://www.w3.org/2000/svg" xmlns:xlink="http://www.w3.org/1999/xlink">
<title>Group</title>
<desc>Created using Figma</desc>
<g id="Canvas" transform="translate(-5970 -459)">
<g id="Group">
<g id="segmentPinIcon">
<use xlink:href="#path0_fill" transform="translate(5971 460)" fill="#000000" fill-opacity="0.01"/>
<use xlink:href="#path1_stroke" transform="translate(5971 460)" fill="#A0B0B9"/>
</g>
<g id="svg">
<g id="ic_pin-blue">
<g id="Shape">
<use xlink:href="#path2_fill" transform="translate(5976.6 464.5)" fill="#A0B0B9"/>
</g>
</g>
</g>
</g>
</g>
<defs>
<path id="path0_fill" fill-rule="evenodd" d="M 0 10C 0 4.47715 4.47715 0 10 0C 15.5228 0 20 4.47715 20 10C 20 15.5228 15.5228 20 10 20C 4.47715 20 0 15.5228 0 10Z"/>
<path id="path1_stroke" d="M 10 19.5C 4.75329 19.5 0.5 15.2467 0.5 10L -0.5 10C -0.5 15.799 4.20101 20.5 10 20.5L 10 19.5ZM 19.5 10C 19.5 15.2467 15.2467 19.5 10 19.5L 10 20.5C 15.799 20.5 20.5 15.799 20.5 10L 19.5 10ZM 10 0.5C 15.2467 0.5 19.5 4.75329 19.5 10L 20.5 10C 20.5 4.20101 15.799 -0.5 10 -0.5L 10 0.5ZM 10 -0.5C 4.20101 -0.5 -0.5 4.20101 -0.5 10L 0.5 10C 0.5 4.75329 4.75329 0.5 10 0.5L 10 -0.5Z"/>
<path id="path2_fill" fill-rule="evenodd" d="M 0.690881 9.76989C 0.519972 9.92589 0.330881 9.92889 0.189972 9.77689C 0.0490633 9.62289 0.0536087 9.40689 0.197245 9.21789C 0.586336 8.71289 1.68906 7.36289 2.31452 6.59989L 0.0790633 4.14189C -0.0854822 3.95989 0.0499724 3.78689 0.0999724 3.73189C 0.528154 3.26189 1.47543 3.06589 2.35088 3.46989L 2.48361 3.61589C 3.40634 2.85289 4.68724 1.71089 5.46452 1.08589L 5.3127 0.918894C 5.22721 0.82509 5.17916 0.697721 5.17916 0.564894C 5.17916 0.432067 5.22721 0.304698 5.3127 0.210894L 5.3727 0.146894C 5.45798 0.0528521 5.57377 -8.13152e-18 5.69452 0C 5.81527 8.13152e-18 5.93106 0.0528521 6.01634 0.146894L 8.95906 3.38289C 9.04456 3.4767 9.0926 3.60407 9.0926 3.73689C 9.0926 3.86972 9.04456 3.99709 8.95906 4.09089L 8.89997 4.15589C 8.8147 4.24994 8.69891 4.30279 8.57815 4.30279C 8.4574 4.30279 8.34161 4.24994 8.25634 4.15589L 8.14725 4.03589C 7.57088 4.88989 6.52179 6.27689 5.81543 7.27989L 5.93724 7.41389C 6.28997 8.34889 6.10543 9.38789 5.71179 9.87389C 5.6527 9.93889 5.50179 10.1049 5.31815 9.90389L 3.08452 7.44589C 2.34634 8.16589 1.04088 9.44689 0.689972 9.76789L 0.690881 9.76989Z"/>
</defs>
</svg>
