<svg width="17" height="23" viewBox="0 0 17 23" version="1.1" xmlns="http://www.w3.org/2000/svg" xmlns:xlink="http://www.w3.org/1999/xlink">
<title>Shape</title>
<desc>Created using Figma</desc>
<g id="Canvas" transform="translate(-4716 -234)">
<g id="Shape">
<use xlink:href="#path0_fill" transform="translate(4716 234)" fill="#9AB0B9"/>
</g>
</g>
<defs>
<path id="path0_fill" fill-rule="evenodd" d="M 5.98975 0C 5.42383 0 4.98486 0.447998 4.98486 1C 4.98486 1.26608 5.09082 1.52119 5.2793 1.70888C 5.46826 1.89656 5.72363 2.00133 5.98975 2L 5.98682 5L 1.96484 5C 0.862793 5 0 5.89301 0 6.995L 0 19.005C 0 20.107 0.862793 21 1.96387 21L 3.98389 21L 3.98389 22.001C 3.9834 22.2664 4.08887 22.5212 4.27686 22.7087C 4.46484 22.8962 4.71973 23.0011 4.98486 23C 5.25049 23.0011 5.50537 22.8962 5.69385 22.7088C 5.88184 22.5213 5.9873 22.2665 5.98682 22.001L 5.98682 21L 10.9951 21L 10.9951 22.001C 10.9946 22.2664 11.0996 22.5212 11.2876 22.7087C 11.3755 22.7964 11.478 22.866 11.5894 22.9152C 11.6362 22.9358 11.6846 22.9528 11.7339 22.966C 11.7871 22.9803 11.8418 22.9902 11.897 22.9955C 11.9297 22.9986 11.9629 23.0001 11.9961 23C 12.2617 23.0011 12.5166 22.8962 12.7046 22.7088C 12.8926 22.5213 12.998 22.2665 12.998 22.001L 12.998 21L 15.0869 21C 16.188 21 17 20.107 17 19.005L 17 6.995C 17 5.89301 16.1899 5 15.0869 5L 10.9951 5L 10.9917 2C 11.5439 2 11.9917 1.55229 11.9917 1C 11.9917 0.447708 11.5439 0 10.9917 0L 5.98975 0ZM 9.99316 2L 6.98779 2L 6.98779 5L 9.99316 5L 9.99316 2ZM 11.9951 20L 4.98682 20L 4.98682 21L 4.98389 22.001L 4.98389 20L 1.96484 20C 1.4248 20 1 19.566 1 19.005L 1 6.995C 1 6.435 1.42578 6 1.96484 6L 15.0869 6C 15.6079 6 16 6.41499 16 6.995L 16 19.005C 16 19.583 15.6069 20 15.0869 20L 11.9951 20Z"/>
</defs>
</svg>
