<svg width="53" height="48" viewBox="0 0 53 48" version="1.1" xmlns="http://www.w3.org/2000/svg" xmlns:xlink="http://www.w3.org/1999/xlink">
<title>Rectangle 8</title>
<desc>Created using Figma</desc>
<g id="Canvas" transform="translate(-5004 -4804)">
<g id="Rectangle 8">
<use xlink:href="#path0_fill" transform="translate(5004 4804)" fill="#EFFBFF"/>
<mask id="mask0_outline_ins">
<use xlink:href="#path0_fill" fill="white" transform="translate(5004 4804)"/>
</mask>
<g mask="url(#mask0_outline_ins)">
<use xlink:href="#path1_stroke_2x" transform="translate(5004 4804)" fill="#00ACE2"/>
</g>
</g>
</g>
<defs>
<path id="path0_fill" fill-rule="evenodd" d="M 6.93328e-05 6.40002C 6.93328e-05 4.1598 6.93328e-05 3.0397 0.436043 2.18405C 0.819537 1.4314 1.43146 0.81948 2.18411 0.435987C 3.03975 1.29821e-05 4.15986 1.29821e-05 6.40007 1.29821e-05L 38.7005 1.29821e-05C 40.2522 1.29821e-05 41.028 1.29821e-05 41.7034 0.251504C 42.2974 0.472747 42.837 0.837273 43.264 1.30586C 43.7494 1.83852 44.0363 2.55166 44.6101 3.97795C 47.2137 10.4495 52.0597 22.6734 52.0597 24C 52.0597 25.3266 47.2137 37.5505 44.6101 44.0221C 44.0363 45.4484 43.7494 46.1615 43.264 46.6942C 42.837 47.1628 42.2974 47.5273 41.7034 47.7485C 41.028 48 40.2522 48 38.7005 48L 6.40007 48C 4.15986 48 3.03975 48 2.18411 47.564C 1.43146 47.1805 0.819537 46.5686 0.436043 45.816C 6.93328e-05 44.9603 6.93328e-05 43.8402 6.93328e-05 41.6L 6.93328e-05 6.40002Z"/>
<path id="path1_stroke_2x" d="M 52.0597 24L 51.2597 24L 52.0597 24ZM 2.18411 47.564L 2.5473 46.8512L 2.18411 47.564ZM 0.436043 45.816L -0.276762 46.1792L 0.436043 45.816ZM 44.6101 44.0221L 45.3523 44.3207L 44.6101 44.0221ZM 43.264 46.6942L 42.6727 46.1553L 43.264 46.6942ZM 41.7034 47.7485L 41.4242 46.9988L 41.7034 47.7485ZM 41.7034 0.251504L 41.9825 -0.498198L 41.7034 0.251504ZM 44.6101 3.97795L 43.8679 4.27653L 44.6101 3.97795ZM 43.264 1.30586L 42.6727 1.84469L 43.264 1.30586ZM 2.18411 0.435987L 1.82091 -0.276818L 2.18411 0.435987ZM 6.40007 0.800013L 38.7005 0.800013L 38.7005 -0.799987L 6.40007 -0.799987L 6.40007 0.800013ZM 43.8679 4.27653C 45.1692 7.51109 47.0294 12.1796 48.5637 16.2034C 49.3312 18.2162 50.0148 20.0615 50.5056 21.4831C 50.7514 22.1948 50.9459 22.7921 51.0781 23.2473C 51.1444 23.4754 51.1925 23.6595 51.2234 23.7998C 51.2577 23.9556 51.2597 24.0094 51.2597 24L 52.8597 24C 52.8597 23.8248 52.8239 23.6277 52.7859 23.4555C 52.7446 23.2679 52.686 23.047 52.6147 22.8012C 52.4717 22.3087 52.2673 21.6828 52.018 20.9609C 51.5189 19.5152 50.8282 17.6513 50.0587 15.6333C 48.5191 11.5957 46.6546 6.91641 45.3523 3.67936L 43.8679 4.27653ZM 51.2597 24C 51.2597 23.9906 51.2577 24.0445 51.2234 24.2003C 51.1925 24.3406 51.1444 24.5246 51.0781 24.7527C 50.9459 25.208 50.7514 25.8052 50.5056 26.517C 50.0148 27.9386 49.3312 29.7838 48.5637 31.7966C 47.0294 35.8204 45.1692 40.4889 43.8679 43.7235L 45.3523 44.3207C 46.6546 41.0836 48.5191 36.4044 50.0587 32.3667C 50.8282 30.3487 51.5189 28.4848 52.018 27.0391C 52.2673 26.3172 52.4717 25.6913 52.6147 25.1989C 52.686 24.9531 52.7446 24.7322 52.7859 24.5445C 52.8239 24.3723 52.8597 24.1752 52.8597 24L 51.2597 24ZM 38.7005 47.2L 6.40007 47.2L 6.40007 48.8L 38.7005 48.8L 38.7005 47.2ZM 0.800069 41.6L 0.800069 6.40002L -0.799931 6.40002L -0.799931 41.6L 0.800069 41.6ZM 6.40007 47.2C 5.26677 47.2 4.4649 47.1994 3.83802 47.1482C 3.22049 47.0977 2.84355 47.0022 2.5473 46.8512L 1.82091 48.2768C 2.38031 48.5619 2.99125 48.6843 3.70773 48.7429C 4.41487 48.8006 5.29317 48.8 6.40007 48.8L 6.40007 47.2ZM -0.799931 41.6C -0.799931 42.7069 -0.800553 43.5852 -0.742777 44.2924C -0.684238 45.0088 -0.561789 45.6198 -0.276762 46.1792L 1.14885 45.4528C 0.997902 45.1565 0.902364 44.7796 0.851909 44.1621C 0.800691 43.5352 0.800069 42.7333 0.800069 41.6L -0.799931 41.6ZM 2.5473 46.8512C 1.94518 46.5444 1.45564 46.0549 1.14885 45.4528L -0.276762 46.1792C 0.18343 47.0823 0.917737 47.8167 1.82091 48.2768L 2.5473 46.8512ZM 43.8679 43.7235C 43.2709 45.2075 43.0379 45.7546 42.6727 46.1553L 43.8553 47.233C 44.4609 46.5684 44.8017 45.6892 45.3523 44.3207L 43.8679 43.7235ZM 38.7005 48.8C 40.189 48.8 41.1398 48.8121 41.9825 48.4982L 41.4242 46.9988C 40.9163 47.188 40.3153 47.2 38.7005 47.2L 38.7005 48.8ZM 42.6727 46.1553C 42.3315 46.5298 41.8989 46.822 41.4242 46.9988L 41.9825 48.4982C 42.696 48.2325 43.3426 47.7957 43.8553 47.233L 42.6727 46.1553ZM 38.7005 0.800013C 40.3153 0.800013 40.9163 0.81207 41.4242 1.00121L 41.9825 -0.498198C 41.1398 -0.812044 40.189 -0.799987 38.7005 -0.799987L 38.7005 0.800013ZM 45.3523 3.67936C 44.8017 2.31083 44.4609 1.4316 43.8553 0.767033L 42.6727 1.84469C 43.0379 2.24543 43.2709 2.79249 43.8679 4.27653L 45.3523 3.67936ZM 41.4242 1.00121C 41.8989 1.178 42.3315 1.47024 42.6727 1.84469L 43.8553 0.767033C 43.3426 0.20431 42.696 -0.23251 41.9825 -0.498198L 41.4242 1.00121ZM 6.40007 -0.799987C 5.29316 -0.799987 4.41487 -0.800609 3.70773 -0.742833C 2.99125 -0.684295 2.38031 -0.561846 1.82091 -0.276818L 2.5473 1.14879C 2.84355 0.997846 3.22049 0.902308 3.83802 0.851853C 4.4649 0.800635 5.26676 0.800013 6.40007 0.800013L 6.40007 -0.799987ZM 0.800069 6.40002C 0.800069 5.26671 0.800691 4.46484 0.851909 3.83797C 0.902364 3.22043 0.997902 2.84349 1.14885 2.54724L -0.276762 1.82086C -0.561789 2.38026 -0.684238 2.99119 -0.742777 3.70768C -0.800553 4.41482 -0.799931 5.29311 -0.799931 6.40002L 0.800069 6.40002ZM 1.82091 -0.276818C 0.917737 0.183374 0.18343 0.917681 -0.276762 1.82086L 1.14885 2.54724C 1.45564 1.94512 1.94518 1.45559 2.5473 1.14879L 1.82091 -0.276818Z"/>
</defs>
</svg>
