<svg width="22" height="22" viewBox="0 0 22 22" version="1.1" xmlns="http://www.w3.org/2000/svg" xmlns:xlink="http://www.w3.org/1999/xlink">
<title>svg</title>
<desc>Created using Figma</desc>
<g id="Canvas" transform="translate(-866 -1083)">
<g id="svg">
<g id="Shape">
<use xlink:href="#path0_fill" transform="translate(866 1083)" fill="#A0B0B9"/>
</g>
</g>
</g>
<defs>
<path id="path0_fill" fill-rule="evenodd" d="M 22 1.22217L 22 2.44446L 12.2222 13.4445L 12.2222 19.5555L 17.1111 19.5555C 17.7906 19.5555 18.3333 20.1031 18.3333 20.7778C 18.3333 21.4573 17.7833 22 17.1086 22L 4.89136 22C 4.224 22 3.66669 21.4524 3.66669 20.7778C 3.66669 20.0983 4.21423 19.5555 4.88892 19.5555L 9.77777 19.5555L 9.77777 13.4445L 0 2.44446L 0 1.22217C 0 0.542725 0.543884 0 1.21368 0L 20.7863 0C 21.4561 0 22 0.547607 22 1.22217ZM 5.05756 3.97839C 5.51837 4.4856 6.42523 4.88892 7.09503 4.88892L 14.8916 4.88892C 15.554 4.88892 16.4768 4.48193 16.9351 3.97839L 18.3334 2.44446L 3.66669 2.44446L 5.05756 3.97839Z"/>
</defs>
</svg>
