<svg width="22" height="22" viewBox="0 0 22 22" version="1.1" xmlns="http://www.w3.org/2000/svg" xmlns:xlink="http://www.w3.org/1999/xlink">
<title>svg</title>
<desc>Created using Figma</desc>
<g id="Canvas" transform="translate(-761 -1082)">
<g id="svg">
<g id="Shape">
<use xlink:href="#path0_fill" transform="translate(761 1082)" fill="#A0B0B9"/>
</g>
</g>
</g>
<defs>
<path id="path0_fill" fill-rule="evenodd" d="M 11 0L 0 5.23804L 0 6.28577C 0 6.86816 0.488403 7.33337 1.09119 7.33337L 20.9088 7.33337C 21.4995 7.33337 22 6.86401 22 6.28577L 22 5.23804L 11 0ZM 5.5 10.4762L 5.5 15.7144C 6.10834 15.7196 6.60004 16.1826 6.60004 16.762C 6.60004 17.3402 6.11383 17.8096 5.48901 17.8096L 3.31104 17.8096C 2.6972 17.8096 2.20001 17.3444 2.20001 16.762C 2.20001 16.1858 2.68182 15.7196 3.29999 15.7144L 3.29999 10.4762C 2.69171 10.4709 2.20001 10.0079 2.20001 9.42859C 2.20001 8.85034 2.68622 8.38098 3.31104 8.38098L 5.48901 8.38098C 6.10278 8.38098 6.60004 8.84607 6.60004 9.42859C 6.60004 10.0048 6.11823 10.4709 5.5 10.4762ZM 12.1 15.7144L 12.1 10.4762C 12.7182 10.4709 13.2 10.0048 13.2 9.42859C 13.2 8.84607 12.7028 8.38098 12.089 8.38098L 9.91101 8.38098C 9.28619 8.38098 8.79999 8.85034 8.79999 9.42859C 8.79999 10.0079 9.29169 10.4709 9.89996 10.4762L 9.89996 15.7144C 9.2818 15.7196 8.79999 16.1858 8.79999 16.762C 8.79999 17.3444 9.29718 17.8096 9.91101 17.8096L 12.089 17.8096C 12.7127 17.8096 13.2 17.3402 13.2 16.762C 13.2 16.1826 12.7083 15.7196 12.1 15.7144ZM 18.7 15.7144L 18.7 10.4762C 19.3182 10.4709 19.8 10.0048 19.8 9.42859C 19.8 8.84607 19.3028 8.38098 18.689 8.38098L 16.511 8.38098C 15.8862 8.38098 15.4 8.85034 15.4 9.42859C 15.4 10.0079 15.8917 10.4709 16.5 10.4762L 16.5 15.7144C 15.8818 15.7196 15.4 16.1858 15.4 16.762C 15.4 17.3444 15.8972 17.8096 16.511 17.8096L 18.689 17.8096C 19.3127 17.8096 19.8 17.3402 19.8 16.762C 19.8 16.1826 19.3083 15.7196 18.7 15.7144ZM 0 19.9048C 0 19.3254 0.500488 18.8572 1.09119 18.8572L 20.9088 18.8572C 21.5116 18.8572 22 19.3213 22 19.9048L 22 20.9524C 22 21.5317 21.4995 22 20.9088 22L 1.09119 22C 0.488403 22 0 21.5359 0 20.9524L 0 19.9048Z"/>
</defs>
</svg>
