<svg width="22" height="22" viewBox="0 0 22 22" version="1.1" xmlns="http://www.w3.org/2000/svg" xmlns:xlink="http://www.w3.org/1999/xlink">
<title>svg</title>
<desc>Created using Figma</desc>
<g id="Canvas" transform="translate(-447 -1082)">
<g id="svg">
<g id="Shape">
<use xlink:href="#path0_fill" transform="translate(447 1082)" fill="#A0B0B9"/>
</g>
</g>
</g>
<defs>
<path id="path0_fill" fill-rule="evenodd" d="M 0 11C 0 4.92798 4.91699 0 10.989 0C 17.072 0 22 4.92798 22 11C 22 17.072 17.072 22 10.989 22C 4.91699 22 0 17.072 0 11ZM 15.367 6.59998L 18.612 6.59998C 17.556 4.78491 15.873 3.37695 13.849 2.68396C 14.509 3.90491 15.015 5.22498 15.367 6.59998ZM 11 2.24402C 11.913 3.56396 12.628 5.02698 13.101 6.59998L 8.89899 6.59998C 9.37198 5.02698 10.087 3.56396 11 2.24402ZM 2.20001 11C 2.20001 11.759 2.31 12.4961 2.48602 13.2001L 6.20401 13.2001C 6.116 12.474 6.05002 11.748 6.05002 11C 6.05002 10.2521 6.116 9.526 6.20401 8.80005L 2.48602 8.80005C 2.31 9.50403 2.20001 10.2411 2.20001 11ZM 3.388 15.4L 6.633 15.4C 6.98499 16.775 7.491 18.095 8.151 19.316C 6.12701 18.623 4.444 17.2261 3.388 15.4ZM 3.388 6.59998L 6.633 6.59998C 6.98499 5.22498 7.491 3.90491 8.151 2.68396C 6.12701 3.37695 4.444 4.77393 3.388 6.59998ZM 11 19.756C 10.087 18.436 9.37198 16.973 8.89899 15.4L 13.101 15.4C 12.628 16.973 11.913 18.436 11 19.756ZM 8.25 11C 8.25 11.748 8.327 12.474 8.42599 13.2001L 13.574 13.2001C 13.673 12.474 13.75 11.748 13.75 11C 13.75 10.2521 13.673 9.51501 13.574 8.80005L 8.42599 8.80005C 8.327 9.51501 8.25 10.2521 8.25 11ZM 13.849 19.316C 14.509 18.095 15.015 16.775 15.367 15.4L 18.612 15.4C 17.556 17.215 15.873 18.623 13.849 19.316ZM 15.95 11C 15.95 11.748 15.884 12.474 15.796 13.2001L 19.514 13.2001C 19.69 12.4961 19.8 11.759 19.8 11C 19.8 10.2411 19.69 9.50403 19.514 8.80005L 15.796 8.80005C 15.884 9.526 15.95 10.2521 15.95 11Z"/>
</defs>
</svg>
