<svg width="16" height="16" viewBox="0 0 16 16" version="1.1" xmlns="http://www.w3.org/2000/svg" xmlns:xlink="http://www.w3.org/1999/xlink">
<title>clear</title>
<desc>Created using Figma</desc>
<g id="Canvas" transform="translate(-4562 -236)">
<g id="clear">
<use xlink:href="#path0_fill" transform="translate(4562 236)" fill="#A0B0B9"/>
</g>
</g>
<defs>
<path id="path0_fill" fill-rule="evenodd" d="M 8 0C 3.58154 0 0 3.58173 0 8C 0 12.4183 3.58154 16 8 16C 12.4185 16 16 12.4183 16 8C 16 3.58173 12.4185 0 8 0ZM 6.12939 10.806L 7.99951 8.93481L 9.87109 10.806C 10.0381 10.973 10.2817 11.0381 10.5098 10.9769C 10.7383 10.9156 10.9165 10.7371 10.9775 10.5088C 11.0386 10.2805 10.9731 10.0369 10.8062 9.86989L 8.93604 7.99974L 10.8062 6.12959C 10.9731 5.96237 11.0381 5.71875 10.9771 5.49049C 10.9155 5.26222 10.7373 5.084 10.5088 5.02295C 10.2803 4.9619 10.0371 5.0273 9.87012 5.19452L 7.99951 7.06366L 6.12939 5.19351C 5.87109 4.9353 5.45215 4.93552 5.19385 5.19402C 4.93604 5.4525 4.93604 5.87138 5.19434 6.12959L 7.06348 7.99974L 5.19336 9.8709C 4.93506 10.1294 4.93555 10.5483 5.19385 10.8065C 5.45264 11.0647 5.87158 11.0645 6.12939 10.806Z"/>
</defs>
</svg>
