<svg width="125" height="42" viewBox="0 0 125 42" version="1.1" xmlns="http://www.w3.org/2000/svg" xmlns:xlink="http://www.w3.org/1999/xlink">
<title>Group</title>
<desc>Created using Figma</desc>
<g id="Canvas" transform="translate(-1081 -4790)">
<g id="Group">
<g id="appsListItem gp">
<use xlink:href="#path0_fill" transform="translate(1081 4790)" fill="#1E292D"/>
</g>
<g id="play_solid">
<use xlink:href="#path1_fill" transform="translate(1095 4800)" fill="#FFFFFF"/>
</g>
<g id="text">
<use xlink:href="#path2_fill" transform="translate(1124 4796)" fill="#FFFFFF"/>
</g>
<g id="appsListTitle">
<use xlink:href="#path3_fill" transform="translate(1124 4811)" fill="#FFFFFF"/>
</g>
</g>
</g>
<defs>
<path id="path0_fill" fill-rule="evenodd" d="M 0 5C 0 2.23858 2.23858 0 5 0L 120 0C 122.761 0 125 2.23858 125 5L 125 37C 125 39.7614 122.761 42 120 42L 5 42C 2.23858 42 0 39.7614 0 37L 0 5Z"/>
<path id="path1_fill" d="M 10.0015 5.14829C 10.0015 5.14829 1.49752 0.409433 0.998068 0.131021C 0.497788 -0.147391 0 0.0214957 0 0.603402L 0 10.7199L 0 21.042C 0 21.4776 0.355681 21.6666 0.790311 21.4249C 1.22411 21.1833 10.0015 16.2915 10.0015 16.2915L 11.79 15.2953C 12.7495 14.7609 14.6685 13.6921 14.6685 13.6921C 14.6685 13.6921 18.6284 11.4849 19.1553 11.1923C 19.6813 10.8988 19.6306 10.4966 19.1868 10.265C 18.7422 10.0343 14.6685 7.74847 14.6685 7.74847L 10.0015 5.14829Z"/>
<path id="path2_fill" d="M 5.44922 8.96973C 5.37012 9.64648 5.11963 10.1694 4.69775 10.5386C 4.27881 10.9048 3.7207 11.0879 3.02344 11.0879C 2.26758 11.0879 1.66113 10.8169 1.2041 10.2749C 0.75 9.73291 0.522949 9.00781 0.522949 8.09961L 0.522949 7.48438C 0.522949 6.88965 0.628418 6.3667 0.839355 5.91553C 1.05322 5.46436 1.35498 5.11865 1.74463 4.87842C 2.13428 4.63525 2.58545 4.51367 3.09814 4.51367C 3.77783 4.51367 4.32275 4.7041 4.73291 5.08496C 5.14307 5.46289 5.38184 5.9873 5.44922 6.6582L 4.60107 6.6582C 4.52783 6.14844 4.36816 5.7793 4.12207 5.55078C 3.87891 5.32227 3.5376 5.20801 3.09814 5.20801C 2.55908 5.20801 2.13574 5.40723 1.82812 5.80566C 1.52344 6.2041 1.37109 6.771 1.37109 7.50635L 1.37109 8.12598C 1.37109 8.82031 1.51611 9.37256 1.80615 9.78271C 2.09619 10.1929 2.50195 10.3979 3.02344 10.3979C 3.49219 10.3979 3.85107 10.2925 4.1001 10.0815C 4.35205 9.86768 4.51904 9.49707 4.60107 8.96973L 5.44922 8.96973ZM 7.9585 8.97412L 7.36523 8.97412L 7.36523 11L 6.54785 11L 6.54785 6.24512L 7.36523 6.24512L 7.36523 8.25781L 7.89697 8.25781L 9.49658 6.24512L 10.481 6.24512L 8.6001 8.53027L 10.6392 11L 9.60645 11L 7.9585 8.97412ZM 14.2734 11C 14.2266 10.9062 14.1885 10.7393 14.1592 10.499C 13.7812 10.8916 13.3301 11.0879 12.8057 11.0879C 12.3369 11.0879 11.9517 10.9561 11.6499 10.6924C 11.3511 10.4258 11.2017 10.0889 11.2017 9.68164C 11.2017 9.18652 11.3892 8.80273 11.7642 8.53027C 12.1421 8.25488 12.6724 8.11719 13.355 8.11719L 14.146 8.11719L 14.146 7.74365C 14.146 7.45947 14.061 7.23389 13.8911 7.06689C 13.7212 6.89697 13.4707 6.81201 13.1396 6.81201C 12.8496 6.81201 12.6064 6.88525 12.4102 7.03174C 12.2139 7.17822 12.1157 7.35547 12.1157 7.56348L 11.2983 7.56348C 11.2983 7.32617 11.3818 7.09766 11.5488 6.87793C 11.7188 6.65527 11.9473 6.47949 12.2344 6.35059C 12.5244 6.22168 12.8423 6.15723 13.188 6.15723C 13.7358 6.15723 14.165 6.29492 14.4756 6.57031C 14.7861 6.84277 14.9473 7.21924 14.959 7.69971L 14.959 9.88818C 14.959 10.3247 15.0146 10.6719 15.126 10.9297L 15.126 11L 14.2734 11ZM 12.9243 10.3804C 13.1792 10.3804 13.4209 10.3145 13.6494 10.1826C 13.8779 10.0508 14.0435 9.87939 14.146 9.66846L 14.146 8.69287L 13.5088 8.69287C 12.5127 8.69287 12.0146 8.98438 12.0146 9.56738C 12.0146 9.82227 12.0996 10.0215 12.2695 10.165C 12.4395 10.3086 12.6577 10.3804 12.9243 10.3804ZM 19.8237 11L 19.0063 11L 19.0063 9.27734C 18.6489 9.37109 18.2827 9.41797 17.9077 9.41797C 17.313 9.41797 16.8589 9.26563 16.5454 8.96094C 16.2349 8.65625 16.0767 8.22266 16.0708 7.66016L 16.0708 6.24072L 16.8838 6.24072L 16.8838 7.68652C 16.8984 8.39551 17.2397 8.75 17.9077 8.75C 18.2827 8.75 18.6489 8.70312 19.0063 8.60938L 19.0063 6.24512L 19.8237 6.24512L 19.8237 11ZM 24.0645 11C 24.0176 10.9062 23.9795 10.7393 23.9502 10.499C 23.5723 10.8916 23.1211 11.0879 22.5967 11.0879C 22.1279 11.0879 21.7427 10.9561 21.4409 10.6924C 21.1421 10.4258 20.9927 10.0889 20.9927 9.68164C 20.9927 9.18652 21.1802 8.80273 21.5552 8.53027C 21.9331 8.25488 22.4634 8.11719 23.146 8.11719L 23.937 8.11719L 23.937 7.74365C 23.937 7.45947 23.8521 7.23389 23.6821 7.06689C 23.5122 6.89697 23.2617 6.81201 22.9307 6.81201C 22.6406 6.81201 22.3975 6.88525 22.2012 7.03174C 22.0049 7.17822 21.9067 7.35547 21.9067 7.56348L 21.0894 7.56348C 21.0894 7.32617 21.1729 7.09766 21.3398 6.87793C 21.5098 6.65527 21.7383 6.47949 22.0254 6.35059C 22.3154 6.22168 22.6333 6.15723 22.979 6.15723C 23.5269 6.15723 23.9561 6.29492 24.2666 6.57031C 24.5771 6.84277 24.7383 7.21924 24.75 7.69971L 24.75 9.88818C 24.75 10.3247 24.8057 10.6719 24.917 10.9297L 24.917 11L 24.0645 11ZM 22.7153 10.3804C 22.9702 10.3804 23.2119 10.3145 23.4404 10.1826C 23.6689 10.0508 23.8345 9.87939 23.937 9.66846L 23.937 8.69287L 23.2998 8.69287C 22.3037 8.69287 21.8057 8.98438 21.8057 9.56738C 21.8057 9.82227 21.8906 10.0215 22.0605 10.165C 22.2305 10.3086 22.4487 10.3804 22.7153 10.3804ZM 29.1006 6.24512L 29.9136 6.24512L 29.9136 11L 29.1006 11L 29.1006 7.53271L 26.9077 11L 26.0947 11L 26.0947 6.24512L 26.9077 6.24512L 26.9077 9.7168L 29.1006 6.24512ZM 29.3203 4.51367C 29.3203 4.86816 29.1987 5.15381 28.9556 5.37061C 28.7153 5.58447 28.3989 5.69141 28.0063 5.69141C 27.6138 5.69141 27.2959 5.58301 27.0527 5.36621C 26.8096 5.14941 26.688 4.86523 26.688 4.51367L 27.3516 4.51367C 27.3516 4.71875 27.4072 4.87988 27.5186 4.99707C 27.6299 5.11133 27.7925 5.16846 28.0063 5.16846C 28.2114 5.16846 28.3711 5.11133 28.4854 4.99707C 28.6025 4.88281 28.6611 4.72168 28.6611 4.51367L 29.3203 4.51367ZM 34.752 6.9043L 33.1567 6.9043L 33.1567 11L 32.3438 11L 32.3438 6.9043L 30.7793 6.9043L 30.7793 6.24512L 34.752 6.24512L 34.752 6.9043ZM 37.1646 11.0879C 36.52 11.0879 35.9956 10.877 35.5913 10.4551C 35.187 10.0303 34.9849 9.46338 34.9849 8.75439L 34.9849 8.60498C 34.9849 8.1333 35.0742 7.71289 35.2529 7.34375C 35.4346 6.97168 35.6865 6.68164 36.0088 6.47363C 36.334 6.2627 36.6855 6.15723 37.0635 6.15723C 37.6816 6.15723 38.1621 6.36084 38.5049 6.76807C 38.8477 7.17529 39.019 7.7583 39.019 8.51709L 39.019 8.85547L 35.7979 8.85547C 35.8096 9.32422 35.9458 9.70361 36.2065 9.99365C 36.4702 10.2808 36.8042 10.4243 37.2085 10.4243C 37.4956 10.4243 37.7388 10.3657 37.938 10.2485C 38.1372 10.1313 38.3115 9.97607 38.4609 9.78271L 38.9575 10.1694C 38.5591 10.7817 37.9614 11.0879 37.1646 11.0879ZM 37.0635 6.8252C 36.7354 6.8252 36.46 6.94531 36.2373 7.18555C 36.0146 7.42285 35.877 7.75684 35.8242 8.1875L 38.2061 8.1875L 38.2061 8.12598C 38.1826 7.71289 38.0713 7.39355 37.8721 7.16797C 37.6729 6.93945 37.4033 6.8252 37.0635 6.8252ZM 42.271 11L 42.271 6.24512L 44.1255 6.24512C 44.7583 6.24512 45.2432 6.35645 45.5801 6.5791C 45.9199 6.79883 46.0898 7.12256 46.0898 7.55029C 46.0898 7.77002 46.0239 7.96924 45.8921 8.14795C 45.7603 8.32373 45.5654 8.4585 45.3076 8.55225C 45.5947 8.61963 45.8247 8.75146 45.9976 8.94775C 46.1733 9.14404 46.2612 9.37842 46.2612 9.65088C 46.2612 10.0874 46.1001 10.4214 45.7778 10.6528C 45.4585 10.8843 45.0059 11 44.4199 11L 42.271 11ZM 43.084 8.9126L 43.084 10.3452L 44.4287 10.3452C 44.7686 10.3452 45.022 10.2822 45.189 10.1562C 45.3589 10.0303 45.4438 9.85303 45.4438 9.62451C 45.4438 9.1499 45.0952 8.9126 44.3979 8.9126L 43.084 8.9126ZM 43.084 8.26221L 44.1343 8.26221C 44.896 8.26221 45.2769 8.03955 45.2769 7.59424C 45.2769 7.14893 44.9165 6.91895 44.1958 6.9043L 43.084 6.9043L 43.084 8.26221Z"/>
<path id="path3_fill" d="M 7.51172 10.9219C 7.19531 11.3008 6.74805 11.5957 6.16992 11.8066C 5.5918 12.0137 4.95117 12.1172 4.24805 12.1172C 3.50977 12.1172 2.86133 11.957 2.30273 11.6367C 1.74805 11.3125 1.31836 10.8438 1.01367 10.2305C 0.712891 9.61719 0.558594 8.89648 0.550781 8.06836L 0.550781 7.48828C 0.550781 6.63672 0.693359 5.90039 0.978516 5.2793C 1.26758 4.6543 1.68164 4.17773 2.2207 3.84961C 2.76367 3.51758 3.39844 3.35156 4.125 3.35156C 5.13672 3.35156 5.92773 3.59375 6.49805 4.07812C 7.06836 4.55859 7.40625 5.25977 7.51172 6.18164L 5.80078 6.18164C 5.72266 5.69336 5.54883 5.33594 5.2793 5.10938C 5.01367 4.88281 4.64648 4.76953 4.17773 4.76953C 3.58008 4.76953 3.125 4.99414 2.8125 5.44336C 2.5 5.89258 2.3418 6.56055 2.33789 7.44727L 2.33789 7.99219C 2.33789 8.88672 2.50781 9.5625 2.84766 10.0195C 3.1875 10.4766 3.68555 10.7051 4.3418 10.7051C 5.00195 10.7051 5.47266 10.5645 5.75391 10.2832L 5.75391 8.8125L 4.1543 8.8125L 4.1543 7.51758L 7.51172 7.51758L 7.51172 10.9219ZM 8.56641 8.77148C 8.56641 8.14258 8.6875 7.58203 8.92969 7.08984C 9.17187 6.59766 9.51953 6.2168 9.97266 5.94727C 10.4297 5.67773 10.959 5.54297 11.5605 5.54297C 12.416 5.54297 13.1133 5.80469 13.6523 6.32812C 14.1953 6.85156 14.498 7.5625 14.5605 8.46094L 14.5723 8.89453C 14.5723 9.86719 14.3008 10.6484 13.7578 11.2383C 13.2148 11.8242 12.4863 12.1172 11.5723 12.1172C 10.6582 12.1172 9.92773 11.8242 9.38086 11.2383C 8.83789 10.6523 8.56641 9.85547 8.56641 8.84766L 8.56641 8.77148ZM 10.2598 8.89453C 10.2598 9.49609 10.373 9.95703 10.5996 10.2773C 10.8262 10.5938 11.1504 10.752 11.5723 10.752C 11.9824 10.752 12.3027 10.5957 12.5332 10.2832C 12.7637 9.9668 12.8789 9.46289 12.8789 8.77148C 12.8789 8.18164 12.7637 7.72461 12.5332 7.40039C 12.3027 7.07617 11.9785 6.91406 11.5605 6.91406C 11.1465 6.91406 10.8262 7.07617 10.5996 7.40039C 10.373 7.7207 10.2598 8.21875 10.2598 8.89453ZM 15.3516 8.77148C 15.3516 8.14258 15.4727 7.58203 15.7148 7.08984C 15.957 6.59766 16.3047 6.2168 16.7578 5.94727C 17.2148 5.67773 17.7441 5.54297 18.3457 5.54297C 19.2012 5.54297 19.8984 5.80469 20.4375 6.32812C 20.9805 6.85156 21.2832 7.5625 21.3457 8.46094L 21.3574 8.89453C 21.3574 9.86719 21.0859 10.6484 20.543 11.2383C 20 11.8242 19.2715 12.1172 18.3574 12.1172C 17.4434 12.1172 16.7129 11.8242 16.166 11.2383C 15.623 10.6523 15.3516 9.85547 15.3516 8.84766L 15.3516 8.77148ZM 17.0449 8.89453C 17.0449 9.49609 17.1582 9.95703 17.3848 10.2773C 17.6113 10.5938 17.9355 10.752 18.3574 10.752C 18.7676 10.752 19.0879 10.5957 19.3184 10.2832C 19.5488 9.9668 19.6641 9.46289 19.6641 8.77148C 19.6641 8.18164 19.5488 7.72461 19.3184 7.40039C 19.0879 7.07617 18.7637 6.91406 18.3457 6.91406C 17.9316 6.91406 17.6113 7.07617 17.3848 7.40039C 17.1582 7.7207 17.0449 8.21875 17.0449 8.89453ZM 22.1543 8.7832C 22.1543 7.81055 22.3848 7.02734 22.8457 6.43359C 23.3105 5.83984 23.9355 5.54297 24.7207 5.54297C 25.416 5.54297 25.957 5.78125 26.3438 6.25781L 26.4141 5.66016L 27.9492 5.66016L 27.9492 11.7891C 27.9492 12.3438 27.8223 12.8262 27.5684 13.2363C 27.3184 13.6465 26.9648 13.959 26.5078 14.1738C 26.0508 14.3887 25.5156 14.4961 24.9023 14.4961C 24.4375 14.4961 23.9844 14.4023 23.543 14.2148C 23.1016 14.0312 22.7676 13.793 22.541 13.5L 23.291 12.4688C 23.7129 12.9414 24.2246 13.1777 24.8262 13.1777C 25.2754 13.1777 25.625 13.0566 25.875 12.8145C 26.125 12.5762 26.25 12.2363 26.25 11.7949L 26.25 11.4551C 25.8594 11.8965 25.3457 12.1172 24.709 12.1172C 23.9473 12.1172 23.3301 11.8203 22.8574 11.2266C 22.3887 10.6289 22.1543 9.83789 22.1543 8.85352L 22.1543 8.7832ZM 23.8477 8.90625C 23.8477 9.48047 23.9629 9.93164 24.1934 10.2598C 24.4238 10.584 24.7402 10.7461 25.1426 10.7461C 25.6582 10.7461 26.0273 10.5527 26.25 10.166L 26.25 7.5C 26.0234 7.11328 25.6582 6.91992 25.1543 6.91992C 24.748 6.91992 24.4277 7.08594 24.1934 7.41797C 23.9629 7.75 23.8477 8.24609 23.8477 8.90625ZM 31.043 12L 29.3438 12L 29.3438 3L 31.043 3L 31.043 12ZM 35.3613 12.1172C 34.4316 12.1172 33.6738 11.832 33.0879 11.2617C 32.5059 10.6914 32.2148 9.93164 32.2148 8.98242L 32.2148 8.81836C 32.2148 8.18164 32.3379 7.61328 32.584 7.11328C 32.8301 6.60938 33.1777 6.22266 33.627 5.95312C 34.0801 5.67969 34.5957 5.54297 35.1738 5.54297C 36.041 5.54297 36.7227 5.81641 37.2188 6.36328C 37.7187 6.91016 37.9688 7.68555 37.9688 8.68945L 37.9688 9.38086L 33.9316 9.38086C 33.9863 9.79492 34.1504 10.127 34.4238 10.377C 34.7012 10.627 35.0508 10.752 35.4727 10.752C 36.125 10.752 36.6348 10.5156 37.002 10.043L 37.834 10.9746C 37.5801 11.334 37.2363 11.6152 36.8027 11.8184C 36.3691 12.0176 35.8887 12.1172 35.3613 12.1172ZM 35.168 6.91406C 34.832 6.91406 34.5586 7.02734 34.3477 7.25391C 34.1406 7.48047 34.0078 7.80469 33.9492 8.22656L 36.3047 8.22656L 36.3047 8.0918C 36.2969 7.7168 36.1953 7.42773 36 7.22461C 35.8047 7.01758 35.5273 6.91406 35.168 6.91406ZM 43.793 8.99414L 43.793 12L 42.0352 12L 42.0352 3.46875L 45.3633 3.46875C 46.0039 3.46875 46.5664 3.58594 47.0508 3.82031C 47.5391 4.05469 47.9141 4.38867 48.1758 4.82227C 48.4375 5.25195 48.5684 5.74219 48.5684 6.29297C 48.5684 7.12891 48.2812 7.78906 47.707 8.27344C 47.1367 8.75391 46.3457 8.99414 45.334 8.99414L 43.793 8.99414ZM 43.793 7.57031L 45.3633 7.57031C 45.8281 7.57031 46.1816 7.46094 46.4238 7.24219C 46.6699 7.02344 46.793 6.71094 46.793 6.30469C 46.793 5.88672 46.6699 5.54883 46.4238 5.29102C 46.1777 5.0332 45.8379 4.90039 45.4043 4.89258L 43.793 4.89258L 43.793 7.57031ZM 51.457 12L 49.7578 12L 49.7578 3L 51.457 3L 51.457 12ZM 56.5312 12C 56.4531 11.8477 56.3965 11.6582 56.3613 11.4316C 55.9512 11.8887 55.418 12.1172 54.7617 12.1172C 54.1406 12.1172 53.625 11.9375 53.2148 11.5781C 52.8086 11.2188 52.6055 10.7656 52.6055 10.2188C 52.6055 9.54688 52.8535 9.03125 53.3496 8.67188C 53.8496 8.3125 54.5703 8.13086 55.5117 8.12695L 56.291 8.12695L 56.291 7.76367C 56.291 7.4707 56.2148 7.23633 56.0625 7.06055C 55.9141 6.88477 55.6777 6.79688 55.3535 6.79688C 55.0684 6.79688 54.8438 6.86523 54.6797 7.00195C 54.5195 7.13867 54.4395 7.32617 54.4395 7.56445L 52.7461 7.56445C 52.7461 7.19727 52.8594 6.85742 53.0859 6.54492C 53.3125 6.23242 53.6328 5.98828 54.0469 5.8125C 54.4609 5.63281 54.9258 5.54297 55.4414 5.54297C 56.2227 5.54297 56.8418 5.74023 57.2988 6.13477C 57.7598 6.52539 57.9902 7.07617 57.9902 7.78711L 57.9902 10.5352C 57.9941 11.1367 58.0781 11.5918 58.2422 11.9004L 58.2422 12L 56.5312 12ZM 55.1309 10.8223C 55.3809 10.8223 55.6113 10.7676 55.8223 10.6582C 56.0332 10.5449 56.1895 10.3945 56.291 10.207L 56.291 9.11719L 55.6582 9.11719C 54.8105 9.11719 54.3594 9.41016 54.3047 9.99609L 54.2988 10.0957C 54.2988 10.3066 54.373 10.4805 54.5215 10.6172C 54.6699 10.7539 54.873 10.8223 55.1309 10.8223ZM 61.5645 9.60352L 62.7363 5.66016L 64.5527 5.66016L 62.0039 12.9844L 61.8633 13.3184C 61.4844 14.1465 60.8594 14.5605 59.9883 14.5605C 59.7422 14.5605 59.4922 14.5234 59.2383 14.4492L 59.2383 13.166L 59.4961 13.1719C 59.8164 13.1719 60.0547 13.123 60.2109 13.0254C 60.3711 12.9277 60.4961 12.7656 60.5859 12.5391L 60.7852 12.0176L 58.5645 5.66016L 60.3867 5.66016L 61.5645 9.60352Z"/>
</defs>
</svg>
