<svg width="125" height="42" viewBox="0 0 125 42" version="1.1" xmlns="http://www.w3.org/2000/svg" xmlns:xlink="http://www.w3.org/1999/xlink">
<title>Group</title>
<desc>Created using Figma</desc>
<g id="Canvas" transform="translate(-946 -4790)">
<g id="Group">
<g id="appsListItem as">
<use xlink:href="#path0_fill" transform="translate(946 4790)" fill="#1E292D"/>
</g>
<g id="text">
<use xlink:href="#path1_fill" transform="translate(989 4796)" fill="#FFFFFF"/>
</g>
<g id="appsListTitle">
<use xlink:href="#path2_fill" transform="translate(989 4811)" fill="#FFFFFF"/>
</g>
<g id="path-3">
<use xlink:href="#path3_fill" transform="translate(958 4798)" fill="#FFFFFF"/>
<use xlink:href="#path4_stroke" transform="translate(958 4798)" fill="#FFFFFF" fill-opacity="0.16"/>
</g>
</g>
</g>
<defs>
<path id="path0_fill" fill-rule="evenodd" d="M 0 5C 0 2.23858 2.23858 0 5 0L 120 0C 122.761 0 125 2.23858 125 5L 125 37C 125 39.7614 122.761 42 120 42L 5 42C 2.23858 42 0 39.7614 0 37L 0 5Z"/>
<path id="path1_fill" d="M 5.44922 8.96973C 5.37012 9.64648 5.11963 10.1694 4.69775 10.5386C 4.27881 10.9048 3.7207 11.0879 3.02344 11.0879C 2.26758 11.0879 1.66113 10.8169 1.2041 10.2749C 0.75 9.73291 0.522949 9.00781 0.522949 8.09961L 0.522949 7.48438C 0.522949 6.88965 0.628418 6.3667 0.839355 5.91553C 1.05322 5.46436 1.35498 5.11865 1.74463 4.87842C 2.13428 4.63525 2.58545 4.51367 3.09814 4.51367C 3.77783 4.51367 4.32275 4.7041 4.73291 5.08496C 5.14307 5.46289 5.38184 5.9873 5.44922 6.6582L 4.60107 6.6582C 4.52783 6.14844 4.36816 5.7793 4.12207 5.55078C 3.87891 5.32227 3.5376 5.20801 3.09814 5.20801C 2.55908 5.20801 2.13574 5.40723 1.82812 5.80566C 1.52344 6.2041 1.37109 6.771 1.37109 7.50635L 1.37109 8.12598C 1.37109 8.82031 1.51611 9.37256 1.80615 9.78271C 2.09619 10.1929 2.50195 10.3979 3.02344 10.3979C 3.49219 10.3979 3.85107 10.2925 4.1001 10.0815C 4.35205 9.86768 4.51904 9.49707 4.60107 8.96973L 5.44922 8.96973ZM 7.9585 8.97412L 7.36523 8.97412L 7.36523 11L 6.54785 11L 6.54785 6.24512L 7.36523 6.24512L 7.36523 8.25781L 7.89697 8.25781L 9.49658 6.24512L 10.481 6.24512L 8.6001 8.53027L 10.6392 11L 9.60645 11L 7.9585 8.97412ZM 14.2734 11C 14.2266 10.9062 14.1885 10.7393 14.1592 10.499C 13.7812 10.8916 13.3301 11.0879 12.8057 11.0879C 12.3369 11.0879 11.9517 10.9561 11.6499 10.6924C 11.3511 10.4258 11.2017 10.0889 11.2017 9.68164C 11.2017 9.18652 11.3892 8.80273 11.7642 8.53027C 12.1421 8.25488 12.6724 8.11719 13.355 8.11719L 14.146 8.11719L 14.146 7.74365C 14.146 7.45947 14.061 7.23389 13.8911 7.06689C 13.7212 6.89697 13.4707 6.81201 13.1396 6.81201C 12.8496 6.81201 12.6064 6.88525 12.4102 7.03174C 12.2139 7.17822 12.1157 7.35547 12.1157 7.56348L 11.2983 7.56348C 11.2983 7.32617 11.3818 7.09766 11.5488 6.87793C 11.7188 6.65527 11.9473 6.47949 12.2344 6.35059C 12.5244 6.22168 12.8423 6.15723 13.188 6.15723C 13.7358 6.15723 14.165 6.29492 14.4756 6.57031C 14.7861 6.84277 14.9473 7.21924 14.959 7.69971L 14.959 9.88818C 14.959 10.3247 15.0146 10.6719 15.126 10.9297L 15.126 11L 14.2734 11ZM 12.9243 10.3804C 13.1792 10.3804 13.4209 10.3145 13.6494 10.1826C 13.8779 10.0508 14.0435 9.87939 14.146 9.66846L 14.146 8.69287L 13.5088 8.69287C 12.5127 8.69287 12.0146 8.98438 12.0146 9.56738C 12.0146 9.82227 12.0996 10.0215 12.2695 10.165C 12.4395 10.3086 12.6577 10.3804 12.9243 10.3804ZM 19.8237 11L 19.0063 11L 19.0063 9.27734C 18.6489 9.37109 18.2827 9.41797 17.9077 9.41797C 17.313 9.41797 16.8589 9.26563 16.5454 8.96094C 16.2349 8.65625 16.0767 8.22266 16.0708 7.66016L 16.0708 6.24072L 16.8838 6.24072L 16.8838 7.68652C 16.8984 8.39551 17.2397 8.75 17.9077 8.75C 18.2827 8.75 18.6489 8.70312 19.0063 8.60938L 19.0063 6.24512L 19.8237 6.24512L 19.8237 11ZM 24.0645 11C 24.0176 10.9062 23.9795 10.7393 23.9502 10.499C 23.5723 10.8916 23.1211 11.0879 22.5967 11.0879C 22.1279 11.0879 21.7427 10.9561 21.4409 10.6924C 21.1421 10.4258 20.9927 10.0889 20.9927 9.68164C 20.9927 9.18652 21.1802 8.80273 21.5552 8.53027C 21.9331 8.25488 22.4634 8.11719 23.146 8.11719L 23.937 8.11719L 23.937 7.74365C 23.937 7.45947 23.8521 7.23389 23.6821 7.06689C 23.5122 6.89697 23.2617 6.81201 22.9307 6.81201C 22.6406 6.81201 22.3975 6.88525 22.2012 7.03174C 22.0049 7.17822 21.9067 7.35547 21.9067 7.56348L 21.0894 7.56348C 21.0894 7.32617 21.1729 7.09766 21.3398 6.87793C 21.5098 6.65527 21.7383 6.47949 22.0254 6.35059C 22.3154 6.22168 22.6333 6.15723 22.979 6.15723C 23.5269 6.15723 23.9561 6.29492 24.2666 6.57031C 24.5771 6.84277 24.7383 7.21924 24.75 7.69971L 24.75 9.88818C 24.75 10.3247 24.8057 10.6719 24.917 10.9297L 24.917 11L 24.0645 11ZM 22.7153 10.3804C 22.9702 10.3804 23.2119 10.3145 23.4404 10.1826C 23.6689 10.0508 23.8345 9.87939 23.937 9.66846L 23.937 8.69287L 23.2998 8.69287C 22.3037 8.69287 21.8057 8.98438 21.8057 9.56738C 21.8057 9.82227 21.8906 10.0215 22.0605 10.165C 22.2305 10.3086 22.4487 10.3804 22.7153 10.3804ZM 29.1006 6.24512L 29.9136 6.24512L 29.9136 11L 29.1006 11L 29.1006 7.53271L 26.9077 11L 26.0947 11L 26.0947 6.24512L 26.9077 6.24512L 26.9077 9.7168L 29.1006 6.24512ZM 29.3203 4.51367C 29.3203 4.86816 29.1987 5.15381 28.9556 5.37061C 28.7153 5.58447 28.3989 5.69141 28.0063 5.69141C 27.6138 5.69141 27.2959 5.58301 27.0527 5.36621C 26.8096 5.14941 26.688 4.86523 26.688 4.51367L 27.3516 4.51367C 27.3516 4.71875 27.4072 4.87988 27.5186 4.99707C 27.6299 5.11133 27.7925 5.16846 28.0063 5.16846C 28.2114 5.16846 28.3711 5.11133 28.4854 4.99707C 28.6025 4.88281 28.6611 4.72168 28.6611 4.51367L 29.3203 4.51367ZM 34.752 6.9043L 33.1567 6.9043L 33.1567 11L 32.3438 11L 32.3438 6.9043L 30.7793 6.9043L 30.7793 6.24512L 34.752 6.24512L 34.752 6.9043ZM 37.1646 11.0879C 36.52 11.0879 35.9956 10.877 35.5913 10.4551C 35.187 10.0303 34.9849 9.46338 34.9849 8.75439L 34.9849 8.60498C 34.9849 8.1333 35.0742 7.71289 35.2529 7.34375C 35.4346 6.97168 35.6865 6.68164 36.0088 6.47363C 36.334 6.2627 36.6855 6.15723 37.0635 6.15723C 37.6816 6.15723 38.1621 6.36084 38.5049 6.76807C 38.8477 7.17529 39.019 7.7583 39.019 8.51709L 39.019 8.85547L 35.7979 8.85547C 35.8096 9.32422 35.9458 9.70361 36.2065 9.99365C 36.4702 10.2808 36.8042 10.4243 37.2085 10.4243C 37.4956 10.4243 37.7388 10.3657 37.938 10.2485C 38.1372 10.1313 38.3115 9.97607 38.4609 9.78271L 38.9575 10.1694C 38.5591 10.7817 37.9614 11.0879 37.1646 11.0879ZM 37.0635 6.8252C 36.7354 6.8252 36.46 6.94531 36.2373 7.18555C 36.0146 7.42285 35.877 7.75684 35.8242 8.1875L 38.2061 8.1875L 38.2061 8.12598C 38.1826 7.71289 38.0713 7.39355 37.8721 7.16797C 37.6729 6.93945 37.4033 6.8252 37.0635 6.8252ZM 42.271 11L 42.271 6.24512L 44.1255 6.24512C 44.7583 6.24512 45.2432 6.35645 45.5801 6.5791C 45.9199 6.79883 46.0898 7.12256 46.0898 7.55029C 46.0898 7.77002 46.0239 7.96924 45.8921 8.14795C 45.7603 8.32373 45.5654 8.4585 45.3076 8.55225C 45.5947 8.61963 45.8247 8.75146 45.9976 8.94775C 46.1733 9.14404 46.2612 9.37842 46.2612 9.65088C 46.2612 10.0874 46.1001 10.4214 45.7778 10.6528C 45.4585 10.8843 45.0059 11 44.4199 11L 42.271 11ZM 43.084 8.9126L 43.084 10.3452L 44.4287 10.3452C 44.7686 10.3452 45.022 10.2822 45.189 10.1562C 45.3589 10.0303 45.4438 9.85303 45.4438 9.62451C 45.4438 9.1499 45.0952 8.9126 44.3979 8.9126L 43.084 8.9126ZM 43.084 8.26221L 44.1343 8.26221C 44.896 8.26221 45.2769 8.03955 45.2769 7.59424C 45.2769 7.14893 44.9165 6.91895 44.1958 6.9043L 43.084 6.9043L 43.084 8.26221Z"/>
<path id="path2_fill" d="M 5.57812 10.2422L 2.49609 10.2422L 1.91016 12L 0.0410156 12L 3.2168 3.46875L 4.8457 3.46875L 8.03906 12L 6.16992 12L 5.57812 10.2422ZM 2.9707 8.81836L 5.10352 8.81836L 4.03125 5.625L 2.9707 8.81836ZM 14.1504 8.88867C 14.1504 9.86523 13.9277 10.6484 13.4824 11.2383C 13.041 11.8242 12.4434 12.1172 11.6895 12.1172C 11.0488 12.1172 10.5313 11.8945 10.1367 11.4492L 10.1367 14.4375L 8.44336 14.4375L 8.44336 5.66016L 10.0137 5.66016L 10.0723 6.28125C 10.4824 5.78906 11.0176 5.54297 11.6777 5.54297C 12.459 5.54297 13.0664 5.83203 13.5 6.41016C 13.9336 6.98828 14.1504 7.78516 14.1504 8.80078L 14.1504 8.88867ZM 12.457 8.76562C 12.457 8.17578 12.3516 7.7207 12.1406 7.40039C 11.9336 7.08008 11.6309 6.91992 11.2324 6.91992C 10.7012 6.91992 10.3359 7.12305 10.1367 7.5293L 10.1367 10.125C 10.3438 10.543 10.7129 10.752 11.2441 10.752C 12.0527 10.752 12.457 10.0898 12.457 8.76562ZM 20.9121 8.88867C 20.9121 9.86523 20.6895 10.6484 20.2441 11.2383C 19.8027 11.8242 19.2051 12.1172 18.4512 12.1172C 17.8105 12.1172 17.293 11.8945 16.8984 11.4492L 16.8984 14.4375L 15.2051 14.4375L 15.2051 5.66016L 16.7754 5.66016L 16.834 6.28125C 17.2441 5.78906 17.7793 5.54297 18.4395 5.54297C 19.2207 5.54297 19.8281 5.83203 20.2617 6.41016C 20.6953 6.98828 20.9121 7.78516 20.9121 8.80078L 20.9121 8.88867ZM 19.2188 8.76562C 19.2188 8.17578 19.1133 7.7207 18.9023 7.40039C 18.6953 7.08008 18.3926 6.91992 17.9941 6.91992C 17.4629 6.91992 17.0977 7.12305 16.8984 7.5293L 16.8984 10.125C 17.1055 10.543 17.4746 10.752 18.0059 10.752C 18.8145 10.752 19.2188 10.0898 19.2188 8.76562ZM 29.4902 9.76172C 29.4902 9.42969 29.373 9.17578 29.1387 9C 28.9043 8.82031 28.4824 8.63281 27.873 8.4375C 27.2637 8.23828 26.7812 8.04297 26.4258 7.85156C 25.457 7.32813 24.9727 6.62305 24.9727 5.73633C 24.9727 5.27539 25.1016 4.86523 25.3594 4.50586C 25.6211 4.14258 25.9941 3.85937 26.4785 3.65625C 26.9668 3.45313 27.5137 3.35156 28.1191 3.35156C 28.7285 3.35156 29.2715 3.46289 29.748 3.68555C 30.2246 3.9043 30.5938 4.21484 30.8555 4.61719C 31.1211 5.01953 31.2539 5.47656 31.2539 5.98828L 29.4961 5.98828C 29.4961 5.59766 29.373 5.29492 29.127 5.08008C 28.8809 4.86133 28.5352 4.75195 28.0898 4.75195C 27.6602 4.75195 27.3262 4.84375 27.0879 5.02734C 26.8496 5.20703 26.7305 5.44531 26.7305 5.74219C 26.7305 6.01953 26.8691 6.25195 27.1465 6.43945C 27.4277 6.62695 27.8398 6.80273 28.3828 6.9668C 29.3828 7.26758 30.1113 7.64062 30.5684 8.08594C 31.0254 8.53125 31.2539 9.08594 31.2539 9.75C 31.2539 10.4883 30.9746 11.0684 30.416 11.4902C 29.8574 11.9082 29.1055 12.1172 28.1602 12.1172C 27.5039 12.1172 26.9062 11.998 26.3672 11.7598C 25.8281 11.5176 25.416 11.1875 25.1309 10.7695C 24.8496 10.3516 24.709 9.86719 24.709 9.31641L 26.4727 9.31641C 26.4727 10.2578 27.0352 10.7285 28.1602 10.7285C 28.5781 10.7285 28.9043 10.6445 29.1387 10.4766C 29.373 10.3047 29.4902 10.0664 29.4902 9.76172ZM 34.3652 4.10156L 34.3652 5.66016L 35.4492 5.66016L 35.4492 6.90234L 34.3652 6.90234L 34.3652 10.0664C 34.3652 10.3008 34.4102 10.4687 34.5 10.5703C 34.5898 10.6719 34.7617 10.7227 35.0156 10.7227C 35.2031 10.7227 35.3691 10.709 35.5137 10.6816L 35.5137 11.9648C 35.1816 12.0664 34.8398 12.1172 34.4883 12.1172C 33.3008 12.1172 32.6953 11.5176 32.6719 10.3184L 32.6719 6.90234L 31.7461 6.90234L 31.7461 5.66016L 32.6719 5.66016L 32.6719 4.10156L 34.3652 4.10156ZM 35.9531 8.77148C 35.9531 8.14258 36.0742 7.58203 36.3164 7.08984C 36.5586 6.59766 36.9063 6.2168 37.3594 5.94727C 37.8164 5.67773 38.3457 5.54297 38.9473 5.54297C 39.8027 5.54297 40.5 5.80469 41.0391 6.32812C 41.582 6.85156 41.8848 7.5625 41.9473 8.46094L 41.959 8.89453C 41.959 9.86719 41.6875 10.6484 41.1445 11.2383C 40.6016 11.8242 39.873 12.1172 38.959 12.1172C 38.0449 12.1172 37.3145 11.8242 36.7676 11.2383C 36.2246 10.6523 35.9531 9.85547 35.9531 8.84766L 35.9531 8.77148ZM 37.6465 8.89453C 37.6465 9.49609 37.7598 9.95703 37.9863 10.2773C 38.2129 10.5938 38.5371 10.752 38.959 10.752C 39.3691 10.752 39.6895 10.5957 39.9199 10.2832C 40.1504 9.9668 40.2656 9.46289 40.2656 8.77148C 40.2656 8.18164 40.1504 7.72461 39.9199 7.40039C 39.6895 7.07617 39.3652 6.91406 38.9473 6.91406C 38.5332 6.91406 38.2129 7.07617 37.9863 7.40039C 37.7598 7.7207 37.6465 8.21875 37.6465 8.89453ZM 46.5645 7.24805C 46.334 7.2168 46.1309 7.20117 45.9551 7.20117C 45.3145 7.20117 44.8945 7.41797 44.6953 7.85156L 44.6953 12L 43.002 12L 43.002 5.66016L 44.6016 5.66016L 44.6484 6.41602C 44.9883 5.83398 45.459 5.54297 46.0605 5.54297C 46.248 5.54297 46.4238 5.56836 46.5879 5.61914L 46.5645 7.24805ZM 50.1855 12.1172C 49.2559 12.1172 48.498 11.832 47.9121 11.2617C 47.3301 10.6914 47.0391 9.93164 47.0391 8.98242L 47.0391 8.81836C 47.0391 8.18164 47.1621 7.61328 47.4082 7.11328C 47.6543 6.60938 48.002 6.22266 48.4512 5.95312C 48.9043 5.67969 49.4199 5.54297 49.998 5.54297C 50.8652 5.54297 51.5469 5.81641 52.043 6.36328C 52.543 6.91016 52.793 7.68555 52.793 8.68945L 52.793 9.38086L 48.7559 9.38086C 48.8105 9.79492 48.9746 10.127 49.248 10.377C 49.5254 10.627 49.875 10.752 50.2969 10.752C 50.9492 10.752 51.459 10.5156 51.8262 10.043L 52.6582 10.9746C 52.4043 11.334 52.0605 11.6152 51.627 11.8184C 51.1934 12.0176 50.7129 12.1172 50.1855 12.1172ZM 49.9922 6.91406C 49.6563 6.91406 49.3828 7.02734 49.1719 7.25391C 48.9648 7.48047 48.832 7.80469 48.7734 8.22656L 51.1289 8.22656L 51.1289 8.0918C 51.1211 7.7168 51.0195 7.42773 50.8242 7.22461C 50.6289 7.01758 50.3516 6.91406 49.9922 6.91406Z"/>
<path id="path3_fill" fill-rule="evenodd" d="M 17.2503 13.0643C 17.2215 9.96066 19.8763 8.45075 19.9977 8.38045C 18.4941 6.25906 16.1637 5.96921 15.3448 5.9461C 13.3875 5.74677 11.489 7.0795 10.4919 7.0795C 9.47498 7.0795 7.93962 5.96536 6.28485 5.9981C 4.15543 6.02988 2.16334 7.22298 1.07077 9.0757C -1.18402 12.8534 0.497621 18.4048 2.65788 21.4583C 3.73851 22.9548 5.00123 24.6236 6.65401 24.5648C 8.27097 24.5013 8.87497 23.5672 10.8263 23.5672C 12.7597 23.5672 13.3268 24.5648 15.0125 24.5263C 16.7478 24.5013 17.8404 23.0251 18.8832 21.5151C 20.132 19.803 20.6335 18.113 20.6534 18.0264C 20.6136 18.0138 17.2842 16.7841 17.2503 13.0643ZM 14.0662 3.93752C 14.9359 2.88501 15.5309 1.4531 15.3657 0C 14.107 0.0539254 12.5328 0.842585 11.6263 1.87198C 10.8243 2.77909 10.1079 4.26589 10.2929 5.66409C 11.7069 5.76617 13.1587 4.97366 14.0662 3.93752Z"/>
<path id="path4_stroke" d="M 17.2503 13.0643L 17.6734 13.0604L 17.6734 13.0603L 17.2503 13.0643ZM 19.9977 8.38045L 20.2097 8.74657L 20.611 8.51418L 20.3428 8.13581L 19.9977 8.38045ZM 15.3448 5.9461L 15.3019 6.367L 15.3174 6.36857L 15.3329 6.36901L 15.3448 5.9461ZM 6.28485 5.9981L 6.29116 6.42114L 6.29321 6.4211L 6.28485 5.9981ZM 1.07077 9.0757L 1.43406 9.29254L 1.4352 9.29061L 1.07077 9.0757ZM 2.65788 21.4583L 2.31248 21.7027L 2.31489 21.706L 2.65788 21.4583ZM 6.65401 24.5648L 6.66904 24.9876L 6.67063 24.9876L 6.65401 24.5648ZM 15.0125 24.5263L 15.0063 24.1033L 15.0028 24.1033L 15.0125 24.5263ZM 18.8832 21.5151L 18.5413 21.2657L 18.5351 21.2747L 18.8832 21.5151ZM 20.6534 18.0264L 21.0657 18.121L 21.1532 17.7401L 20.7803 17.6228L 20.6534 18.0264ZM 14.0662 3.93752L 14.3846 4.21638L 14.3923 4.20701L 14.0662 3.93752ZM 15.3657 0L 15.7861 -0.0477849L 15.7415 -0.439566L 15.3476 -0.422689L 15.3657 0ZM 11.6263 1.87198L 11.9433 2.15222L 11.9438 2.15159L 11.6263 1.87198ZM 10.2929 5.66409L 9.87352 5.71961L 9.91874 6.06126L 10.2625 6.08607L 10.2929 5.66409ZM 17.6734 13.0603C 17.6469 10.216 20.0893 8.81625 20.2097 8.74657L 19.7857 8.01433C 19.6632 8.08525 16.796 9.70531 16.8273 13.0682L 17.6734 13.0603ZM 20.3428 8.13581C 18.7242 5.85205 16.2246 5.54769 15.3567 5.52319L 15.3329 6.36901C 16.1028 6.39074 18.264 6.66608 19.6525 8.62509L 20.3428 8.13581ZM 15.3877 5.5252C 14.3076 5.41521 13.2665 5.72894 12.4131 6.04066C 11.9603 6.20606 11.611 6.35099 11.2561 6.47496C 10.9095 6.59602 10.6633 6.65642 10.4919 6.65642L 10.4919 7.50258C 10.8191 7.50258 11.1841 7.39639 11.5351 7.27379C 11.8777 7.15411 12.3123 6.97831 12.7034 6.83545C 13.5379 6.53063 14.4248 6.27767 15.3019 6.367L 15.3877 5.5252ZM 10.4919 6.65642C 10.3071 6.65642 10.0725 6.60441 9.77166 6.50443C 9.47072 6.40444 9.15038 6.27347 8.77866 6.13135C 8.05898 5.85619 7.19356 5.55696 6.27648 5.57511L 6.29321 6.4211C 7.0309 6.4065 7.76055 6.64798 8.47648 6.9217C 8.82257 7.05402 9.18017 7.19954 9.50484 7.30742C 9.82957 7.41532 10.1683 7.50258 10.4919 7.50258L 10.4919 6.65642ZM 6.27853 5.57507C 3.99615 5.60913 1.87101 6.88581 0.706342 8.8608L 1.4352 9.29061C 2.45567 7.56015 4.31472 6.45063 6.29116 6.42113L 6.27853 5.57507ZM 0.707486 8.85887C -0.490747 10.8664 -0.626856 13.3138 -0.207537 15.6144C 0.212288 17.9178 1.19734 20.1264 2.3125 21.7027L 3.00326 21.214C 1.95816 19.7367 1.02226 17.6428 0.624903 15.4627C 0.227036 13.2798 0.377501 11.0627 1.43406 9.29254L 0.707486 8.85887ZM 2.31489 21.706C 2.85226 22.4502 3.4621 23.277 4.15697 23.908C 4.85335 24.5403 5.68574 25.0226 6.66904 24.9876L 6.63898 24.142C 5.9695 24.1658 5.34413 23.843 4.7258 23.2815C 4.10596 22.7187 3.54413 21.9629 3.00087 21.2106L 2.31489 21.706ZM 6.67063 24.9876C 7.56484 24.9524 8.18793 24.6712 8.77339 24.4344C 9.35105 24.2008 9.93064 23.9903 10.8263 23.9903L 10.8263 23.1441C 9.7706 23.1441 9.07254 23.4007 8.45614 23.65C 7.84753 23.8961 7.36014 24.1137 6.63739 24.1421L 6.67063 24.9876ZM 10.8263 23.9903C 11.7072 23.9903 12.2691 24.2128 12.8512 24.4524C 13.4454 24.697 14.082 24.9707 15.0221 24.9493L 15.0028 24.1033C 14.2573 24.1204 13.7675 23.9145 13.1733 23.67C 12.5671 23.4204 11.8787 23.1441 10.8263 23.1441L 10.8263 23.9903ZM 15.0186 24.9493C 16.0188 24.9349 16.8201 24.4981 17.4913 23.8914C 18.1533 23.2929 18.7126 22.5066 19.2313 21.7556L 18.5351 21.2747C 18.011 22.0336 17.5026 22.7404 16.9238 23.2637C 16.3541 23.7788 15.7415 24.0927 15.0063 24.1033L 15.0186 24.9493ZM 19.225 21.7645C 20.5123 19.9995 21.035 18.255 21.0657 18.121L 20.2411 17.9317C 20.2418 17.9286 20.2136 18.0315 20.1449 18.2271C 20.0787 18.4153 19.979 18.6782 19.8417 18.9912C 19.5667 19.6183 19.1434 20.4405 18.5414 21.2658L 19.225 21.7645ZM 20.7803 17.6228C 20.8076 17.6313 20.0233 17.3482 19.236 16.6242C 18.46 15.9105 17.689 14.7781 17.6734 13.0604L 16.8273 13.0681C 16.8455 15.0703 17.7561 16.4127 18.6632 17.247C 19.559 18.0709 20.4594 18.4089 20.5265 18.4299L 20.7803 17.6228ZM 14.3923 4.20701C 15.3143 3.0912 15.9675 1.5484 15.7861 -0.0477849L 14.9453 0.0477849C 15.0943 1.35779 14.5574 2.67882 13.74 3.66803L 14.3923 4.20701ZM 15.3476 -0.422689C 13.9627 -0.363359 12.2838 0.485162 11.3088 1.59238L 11.9438 2.15159C 12.7818 1.20001 14.2512 0.47121 15.3838 0.422689L 15.3476 -0.422689ZM 11.3094 1.59175C 10.4591 2.55342 9.66682 4.15808 9.87352 5.71961L 10.7124 5.60858C 10.5489 4.37369 11.1895 3.00475 11.9433 2.15222L 11.3094 1.59175ZM 10.2625 6.08607C 11.8439 6.20023 13.4158 5.32228 14.3844 4.21627L 13.7479 3.65877C 12.9016 4.62504 11.57 5.3321 10.3234 5.24212L 10.2625 6.08607Z"/>
</defs>
</svg>
