<svg width="125" height="42" viewBox="0 0 125 42" version="1.1" xmlns="http://www.w3.org/2000/svg" xmlns:xlink="http://www.w3.org/1999/xlink">
<title>Group</title>
<desc>Created using Figma</desc>
<g id="Canvas" transform="translate(-1216 -4789)">
<g id="Group">
<g id="appsListItem wp">
<use xlink:href="#path0_fill" transform="translate(1216 4789)" fill="#1E292D"/>
</g>
<g id="Combined Shape">
<use xlink:href="#path1_fill" transform="translate(1227 4800)" fill="#FFFFFF"/>
</g>
<g id="appsListTitle">
<use xlink:href="#path2_fill" transform="translate(1259 4794)" fill="#FFFFFF"/>
</g>
</g>
</g>
<defs>
<path id="path0_fill" fill-rule="evenodd" d="M 0 5C 0 2.23858 2.23858 0 5 0L 120 0C 122.761 0 125 2.23858 125 5L 125 37C 125 39.7614 122.761 42 120 42L 5 42C 2.23858 42 0 39.7614 0 37L 0 5Z"/>
<path id="path1_fill" fill-rule="evenodd" d="M 20.3076 0L 20.3076 9.26758L 9.23071 9.26758L 9.23071 1.85547L 20.3076 0ZM 8.30432 1.85352L 0 2.89404L 0.00769043 9.26758L 8.30774 9.22412L 8.30432 1.85352ZM 8.30774 17.6084L 8.30127 10.2437L 0 10.1943L 0.000610352 16.5601L 8.30774 17.6084ZM 9.23071 17.6196L 20.3053 19.4619L 20.3076 10.1943L 9.23071 10.1943L 9.23071 17.6196Z"/>
<path id="path2_fill" d="M 7.40625 9.53906L 8.55469 3.46875L 10.3066 3.46875L 8.41406 12L 6.64453 12L 5.25586 6.29297L 3.86719 12L 2.09766 12L 0.205078 3.46875L 1.95703 3.46875L 3.11133 9.52734L 4.51758 3.46875L 6.00586 3.46875L 7.40625 9.53906ZM 12.9375 12L 11.2383 12L 11.2383 5.66016L 12.9375 5.66016L 12.9375 12ZM 11.1387 4.01953C 11.1387 3.76562 11.2227 3.55664 11.3906 3.39258C 11.5625 3.22852 11.7949 3.14648 12.0879 3.14648C 12.377 3.14648 12.6074 3.22852 12.7793 3.39258C 12.9512 3.55664 13.0371 3.76562 13.0371 4.01953C 13.0371 4.27734 12.9492 4.48828 12.7734 4.65234C 12.6016 4.81641 12.373 4.89844 12.0879 4.89844C 11.8027 4.89844 11.5723 4.81641 11.3965 4.65234C 11.2246 4.48828 11.1387 4.27734 11.1387 4.01953ZM 15.8965 5.66016L 15.9492 6.39258C 16.4023 5.82617 17.0098 5.54297 17.7715 5.54297C 18.4434 5.54297 18.9434 5.74023 19.2715 6.13477C 19.5996 6.5293 19.7676 7.11914 19.7754 7.9043L 19.7754 12L 18.082 12L 18.082 7.94531C 18.082 7.58594 18.0039 7.32617 17.8477 7.16602C 17.6914 7.00195 17.4316 6.91992 17.0684 6.91992C 16.5918 6.91992 16.2344 7.12305 15.9961 7.5293L 15.9961 12L 14.3027 12L 14.3027 5.66016L 15.8965 5.66016ZM 20.8008 8.7832C 20.8008 7.79492 21.0215 7.00781 21.4629 6.42188C 21.9082 5.83594 22.5156 5.54297 23.2852 5.54297C 23.9023 5.54297 24.4121 5.77344 24.8145 6.23438L 24.8145 3L 26.5137 3L 26.5137 12L 24.9844 12L 24.9023 11.3262C 24.4805 11.8535 23.9375 12.1172 23.2734 12.1172C 22.5273 12.1172 21.9277 11.8242 21.4746 11.2383C 21.0254 10.6484 20.8008 9.83008 20.8008 8.7832ZM 22.4941 8.90625C 22.4941 9.5 22.5977 9.95508 22.8047 10.2715C 23.0117 10.5879 23.3125 10.7461 23.707 10.7461C 24.2305 10.7461 24.5996 10.5254 24.8145 10.084L 24.8145 7.58203C 24.6035 7.14063 24.2383 6.91992 23.7188 6.91992C 22.9023 6.91992 22.4941 7.58203 22.4941 8.90625ZM 27.5625 8.77148C 27.5625 8.14258 27.6836 7.58203 27.9258 7.08984C 28.168 6.59766 28.5156 6.2168 28.9688 5.94727C 29.4258 5.67773 29.9551 5.54297 30.5566 5.54297C 31.4121 5.54297 32.1094 5.80469 32.6484 6.32812C 33.1914 6.85156 33.4941 7.5625 33.5566 8.46094L 33.5684 8.89453C 33.5684 9.86719 33.2969 10.6484 32.7539 11.2383C 32.2109 11.8242 31.4824 12.1172 30.5684 12.1172C 29.6543 12.1172 28.9238 11.8242 28.377 11.2383C 27.834 10.6523 27.5625 9.85547 27.5625 8.84766L 27.5625 8.77148ZM 29.2559 8.89453C 29.2559 9.49609 29.3691 9.95703 29.5957 10.2773C 29.8223 10.5938 30.1465 10.752 30.5684 10.752C 30.9785 10.752 31.2988 10.5957 31.5293 10.2832C 31.7598 9.9668 31.875 9.46289 31.875 8.77148C 31.875 8.18164 31.7598 7.72461 31.5293 7.40039C 31.2988 7.07617 30.9746 6.91406 30.5566 6.91406C 30.1426 6.91406 29.8223 7.07617 29.5957 7.40039C 29.3691 7.7207 29.2559 8.21875 29.2559 8.89453ZM 40.125 9.69727L 40.957 5.66016L 42.5918 5.66016L 40.9746 12L 39.5566 12L 38.3555 8.00977L 37.1543 12L 35.7422 12L 34.125 5.66016L 35.7598 5.66016L 36.5859 9.69141L 37.7461 5.66016L 38.9707 5.66016L 40.125 9.69727ZM 46.8691 10.248C 46.8691 10.041 46.7656 9.87891 46.5586 9.76172C 46.3555 9.64063 46.0273 9.5332 45.5742 9.43945C 44.0664 9.12305 43.3125 8.48242 43.3125 7.51758C 43.3125 6.95508 43.5449 6.48633 44.0098 6.11133C 44.4785 5.73242 45.0898 5.54297 45.8438 5.54297C 46.6484 5.54297 47.291 5.73242 47.7715 6.11133C 48.2559 6.49023 48.498 6.98242 48.498 7.58789L 46.8047 7.58789C 46.8047 7.3457 46.7266 7.14648 46.5703 6.99023C 46.4141 6.83008 46.1699 6.75 45.8379 6.75C 45.5527 6.75 45.332 6.81445 45.1758 6.94336C 45.0195 7.07227 44.9414 7.23633 44.9414 7.43555C 44.9414 7.62305 45.0293 7.77539 45.2051 7.89258C 45.3848 8.00586 45.6855 8.10547 46.1074 8.19141C 46.5293 8.27344 46.8848 8.36719 47.1738 8.47266C 48.0684 8.80078 48.5156 9.36914 48.5156 10.1777C 48.5156 10.7559 48.2676 11.2246 47.7715 11.584C 47.2754 11.9395 46.6348 12.1172 45.8496 12.1172C 45.3184 12.1172 44.8457 12.0234 44.4316 11.8359C 44.0215 11.6445 43.6992 11.3848 43.4648 11.0566C 43.2305 10.7246 43.1133 10.3672 43.1133 9.98438L 44.7188 9.98438C 44.7344 10.2852 44.8457 10.5156 45.0527 10.6758C 45.2598 10.8359 45.5371 10.916 45.8848 10.916C 46.209 10.916 46.4531 10.8555 46.6172 10.7344C 46.7852 10.6094 46.8691 10.4473 46.8691 10.248ZM 2.51953 23.9941L 2.51953 27L 0.761719 27L 0.761719 18.4688L 4.08984 18.4688C 4.73047 18.4688 5.29297 18.5859 5.77734 18.8203C 6.26563 19.0547 6.64063 19.3887 6.90234 19.8223C 7.16406 20.252 7.29492 20.7422 7.29492 21.293C 7.29492 22.1289 7.00781 22.7891 6.43359 23.2734C 5.86328 23.7539 5.07227 23.9941 4.06055 23.9941L 2.51953 23.9941ZM 2.51953 22.5703L 4.08984 22.5703C 4.55469 22.5703 4.9082 22.4609 5.15039 22.2422C 5.39648 22.0234 5.51953 21.7109 5.51953 21.3047C 5.51953 20.8867 5.39648 20.5488 5.15039 20.291C 4.9043 20.0332 4.56445 19.9004 4.13086 19.8926L 2.51953 19.8926L 2.51953 22.5703ZM 10.0488 21.3516C 10.498 20.8125 11.0625 20.543 11.7422 20.543C 13.1172 20.543 13.8145 21.3418 13.834 22.9395L 13.834 27L 12.1406 27L 12.1406 22.9863C 12.1406 22.623 12.0625 22.3555 11.9062 22.1836C 11.75 22.0078 11.4902 21.9199 11.127 21.9199C 10.6309 21.9199 10.2715 22.1113 10.0488 22.4941L 10.0488 27L 8.35547 27L 8.35547 18L 10.0488 18L 10.0488 21.3516ZM 14.8477 23.7715C 14.8477 23.1426 14.9687 22.582 15.2109 22.0898C 15.4531 21.5977 15.8008 21.2168 16.2539 20.9473C 16.7109 20.6777 17.2402 20.543 17.8418 20.543C 18.6973 20.543 19.3945 20.8047 19.9336 21.3281C 20.4766 21.8516 20.7793 22.5625 20.8418 23.4609L 20.8535 23.8945C 20.8535 24.8672 20.582 25.6484 20.0391 26.2383C 19.4961 26.8242 18.7676 27.1172 17.8535 27.1172C 16.9395 27.1172 16.209 26.8242 15.6621 26.2383C 15.1191 25.6523 14.8477 24.8555 14.8477 23.8477L 14.8477 23.7715ZM 16.541 23.8945C 16.541 24.4961 16.6543 24.957 16.8809 25.2773C 17.1074 25.5938 17.4316 25.752 17.8535 25.752C 18.2637 25.752 18.584 25.5957 18.8145 25.2832C 19.0449 24.9668 19.1602 24.4629 19.1602 23.7715C 19.1602 23.1816 19.0449 22.7246 18.8145 22.4004C 18.584 22.0762 18.2598 21.9141 17.8418 21.9141C 17.4277 21.9141 17.1074 22.0762 16.8809 22.4004C 16.6543 22.7207 16.541 23.2188 16.541 23.8945ZM 23.4551 20.6602L 23.5078 21.3926C 23.9609 20.8262 24.5684 20.543 25.3301 20.543C 26.002 20.543 26.502 20.7402 26.8301 21.1348C 27.1582 21.5293 27.3262 22.1191 27.334 22.9043L 27.334 27L 25.6406 27L 25.6406 22.9453C 25.6406 22.5859 25.5625 22.3262 25.4062 22.166C 25.25 22.002 24.9902 21.9199 24.627 21.9199C 24.1504 21.9199 23.793 22.123 23.5547 22.5293L 23.5547 27L 21.8613 27L 21.8613 20.6602L 23.4551 20.6602ZM 31.541 27.1172C 30.6113 27.1172 29.8535 26.832 29.2676 26.2617C 28.6855 25.6914 28.3945 24.9316 28.3945 23.9824L 28.3945 23.8184C 28.3945 23.1816 28.5176 22.6133 28.7637 22.1133C 29.0098 21.6094 29.3574 21.2227 29.8066 20.9531C 30.2598 20.6797 30.7754 20.543 31.3535 20.543C 32.2207 20.543 32.9023 20.8164 33.3984 21.3633C 33.8984 21.9102 34.1484 22.6855 34.1484 23.6895L 34.1484 24.3809L 30.1113 24.3809C 30.166 24.7949 30.3301 25.127 30.6035 25.377C 30.8809 25.627 31.2305 25.752 31.6523 25.752C 32.3047 25.752 32.8145 25.5156 33.1816 25.043L 34.0137 25.9746C 33.7598 26.334 33.416 26.6152 32.9824 26.8184C 32.5488 27.0176 32.0684 27.1172 31.541 27.1172ZM 31.3477 21.9141C 31.0117 21.9141 30.7383 22.0273 30.5273 22.2539C 30.3203 22.4805 30.1875 22.8047 30.1289 23.2266L 32.4844 23.2266L 32.4844 23.0918C 32.4766 22.7168 32.375 22.4277 32.1797 22.2246C 31.9844 22.0176 31.707 21.9141 31.3477 21.9141Z"/>
</defs>
</svg>
